<svg id="Layer_1" data-name="Layer 1" xmlns="http://www.w3.org/2000/svg" viewBox="0 0 714 714"><defs><style>.cls-1{fill:#231f20;}</style></defs><path class="cls-1" d="M599.69141,283.708c4.49511-19.33887,16.63281-36.94629,34.54589-39.64844a103.58231,103.58231,0,0,0-60.86914-2.52832c35.21192-20.1084,30.88086-72.15234,35.374-107.73633-47.23633,69.68945-28.17188-8.13672-7.292-36.02148-38.458,12.02636-83.79883,7.87207-83.74708,61.74218a117.27684,117.27684,0,0,0-40.85351-34.63476,208.56993,208.56993,0,0,1-7.06641,85.041,98.37722,98.37722,0,0,1-20.62793-40.05859,116.82282,116.82282,0,0,0-5.53613,21.01172c-10.209-21.51563-19.78516-43.1748-23.2832-66.49707a243.652,243.652,0,0,0-34.96387,70.48242C367.22754,132.89258,353.86328,46.7207,279.78418,23.73242A160.84787,160.84787,0,0,1,301.0918,133.49609,132.45423,132.45423,0,0,1,264.147,77.53027c-32.16259,63.1416-40.81982,135.958-24.12939,202.95313a136.42461,136.42461,0,0,0-55.60742-50.03418c.959,43.33789.97216,74.15723,4.13769,99.79492a101.70814,101.70814,0,0,0-5.03174,14.50684c-.07666-40.54883-47.46045-62.50586-76.17334-84,37.23535,75.50781-20.998,20.46972-34.91894-11.46387-8.55274,39.376-34.57373,76.73926,12.28271,103.31934a117.261,117.261,0,0,0-50.30029,18.39648,208.5655,208.5655,0,0,1,70.43506,48.1748,98.38756,98.38756,0,0,1-45.019-1.86718,121.13129,121.13129,0,0,0,85.26806,42.20605c-11.707,2.333-13.228,11.03809-33.39258,12.02832,7.313,8.49512,18.36182,15.26172,31.07178,19.95117L129.88818,594.54883l116.13916,95.71875,140.81153-41.26172,26.50781-137.47461,27.14746,48.38867,150.2832,8.07813,88.81641-116.79883ZM495.88867,251.0332a108.705,108.705,0,0,1,22.67285-56.6582,57.86268,57.86268,0,0,0,5.5752,35.6582c8.916-16.97461,30.665-26.69336,33.66308-45.63281a376.01516,376.01516,0,0,1-11.08593,87.06641l-68.11231,13.18359q-3.52441-27.38671-7.04687-54.77441A163.12146,163.12146,0,0,1,495.88867,251.0332Zm-46.65332,49.26953,3.20215-.62011,11.68457-2.26172,7.34863-1.42188,7.69336-1.48925.68848-.13379,64.085-12.40332,19.251-3.72657,6.54785-1.26757,5.81055-1.124L564.0752,291.1416,511.418,361.3125l-8.75,11.66113L494.86328,383.374l-15.17773,2.22657-11.7461,1.72363-95.88867,14.06933,65.85938-86.25878ZM279.91162,335.70312c-12.90674-51.80664-17.70752-110.10253,7.16358-158.92871,5.49316,16.39454,26.89062,33.38282,40.06445,45.26563,4.86572-29.19141,17.23389-86.542-6.36035-105.54,46.7334,37.62988,57.502,105.07324,71.53222,152.99121a188.451,188.451,0,0,1,27.03809-54.50293,133.49729,133.49729,0,0,0,7.81348,28.2207c6.166,16,14.48242,31.42286,21.44629,47.2461l-4.89161.94726-10.45312,13.69043L355.023,407.56836l2.20215,3.92578-65.33155-31.11035-18.3374,5.334-29.68847,8.63672c-3.59766-13.749-5.02735-28.69238-5.77784-47.48926-.562-14.08105-.74658-30.31933-1.17871-49.85351A105.50029,105.50029,0,0,1,279.91162,335.70312Zm-49.84228,72.85743,16.65527-4.84473,31.521-9.16992,12.80322-3.72461,74.47461,35.46387,15.53613,27.69336-82.41113,24.71972-8.42481,2.52735-11.77392,3.53222-30.52783-16.28027-.10547-.05664-78.89258-42.07227,50.875-14.7998ZM106.04834,427.5a163.00208,163.00208,0,0,1,30.41992-10.69727,108.70745,108.70745,0,0,1-38.04834-47.71386,57.863,57.863,0,0,0,33.75342,12.77832c-10.34961-16.1416-8.04932-39.85157-23.03125-51.81836A375.9999,375.9999,0,0,1,198.60693,402.418a172.26594,172.26594,0,0,1-5.71533-40.63086c1.02149,1.49121,2.24072,3.14648,3.61133,4.93262a166.67621,166.67621,0,0,0,17.62451,36.28613L151.55566,421.209l-2.9663,23.72852Q127.31909,436.21875,106.04834,427.5ZM243.64209,675.62012l-103.375-85.19922,11.98633-95.89356,3.75586-30.04785.19482-1.55664,1.76709-14.13965,2.01367-16.11035,81.58057,43.50586.33252.17774,30.6499,16.34472ZM378.3584,641.293,253.17822,677.97461l29.09961-184.14844,23.91113-7.17285,1.0669-.31934,78.71-23.61035L401.541,490.4873l4.11328,7.33106.27539.49023Zm68.03613-90.85645-30.17773-53.792-1.43164-2.55176-2.27735-4.05859-1.71191-3.05176-1.9961-3.55859-13.22949-23.582-4.90625-8.74414-9.8291-17.52149-4.14844-7.39551-4.14941-7.3955-3.92481-6.9961,98.93848-14.5166L477.6543,395.79l17.17578-2.51953,85.332,164.35644Zm142.83887,3.42383L503.32715,388.39844l10.88574-14.50586L522.2627,363.166l28.29882-37.71094,35.58106-47.417,10.93066,22.91308,71.11719,149.07617Z"/><path class="cls-1" d="M340.74121,535.99414c-5.50635-8.60156-18.84961-10.95117-28.68994-4.53516-43.07471,32.13184,10.87549,80.53614,20.82861,83.34571C407.5752,571.5,383.335,499.94531,340.74121,535.99414Z"/><path class="cls-1" d="M251.87354,451.64648c.34619.15235.69384.30469,1.04541.45411,2.15429.918,4.40527,1.78613,6.71,2.60156a183.41853,183.41853,0,0,0,23.4248,6.40918c8.90772,1.83984,16.33594,2.74512,19.40283,2.62695,57.60987-36.54492,9.73682-69.18066-21.41113-50.5a37.92139,37.92139,0,0,0-6.7207,5.12012c-6.20752-2.252-14.57764-2.57031-21.92285-1.18262a30.375,30.375,0,0,0-11.7544,4.52149c-.30762.25293-.585.50293-.87207.7539-3.10644,2.7168-5.03418,5.31836-5.96338,7.80078C230.55615,438.94727,239.43359,446.165,251.87354,451.64648Z"/><path class="cls-1" d="M200.88916,515.16113c-4.71191-10.67871-15.27637-16.29687-22.69092-11.51269-32.26806,25.37109,12.24414,90.70312,20.17285,96.05176C254.90088,569.30176,232.6001,485.38867,200.88916,515.16113Z"/><path class="cls-1" d="M575.40723,387.624c-9.53711-3.65234-21.66993,2.37793-25.7793,13.38282-15.58691,51.42871,56.56348,58.35253,66.24023,54.7041C650.26758,376.51855,588.28223,333.32812,575.40723,387.624Z"/><path class="cls-1" d="M427.00684,355.07031c-6.06739,24.07813,17.87207,21.3252,40.40332,13.4834,3.32422-1.15723,6.61523-2.4248,9.77734-3.7334,1.82324-.75488,3.60156-1.52148,5.31641-2.29,3.67187-1.64355,7.05175-3.28613,9.957-4.80175a66.63489,66.63489,0,0,0,9.24218-5.52149c15.915-41.0459-2.55175-54.70019-21.41015-50.22168a37.14342,37.14342,0,0,0-15.83008,8.38477,38.74261,38.74261,0,0,0-6.19727,6.98437,37.75582,37.75582,0,0,0-6.14062,15.03613c-.83789.248-1.68848.5625-2.542.9043C439.97461,337.15137,429.75586,346.68164,427.00684,355.07031Z"/><path class="cls-1" d="M461.73828,438.96875a12.58355,12.58355,0,0,0-2.26953.80371c-4.29687,2.00195-7.57813,6.52344-8.96973,14.11231-10.13183-5.7959-21.96777-4.04493-25.09472,4.20605a29.243,29.243,0,0,0,1.56445,20.00586,39.68728,39.68728,0,0,0,3.33594,6.05566c16.35644,24.56055,61.10156,39.56348,68.35547,39.25684C520.41016,477.42676,482.36621,433.80078,461.73828,438.96875Z"/></svg>