<?xml version="1.0" encoding="utf-8"?>
<!-- Generator: Adobe Illustrator 27.0.0, SVG Export Plug-In . SVG Version: 6.00 Build 0)  -->
<svg version="1.1" id="Layer_1" xmlns="http://www.w3.org/2000/svg" xmlns:xlink="http://www.w3.org/1999/xlink" x="0px" y="0px"
	 viewBox="0 0 714 714" style="enable-background:new 0 0 714 714;" xml:space="preserve">
<style type="text/css">
	.st0{fill:#FFFFFF;}
	.st1{fill:#311C48;}
	.st2{fill:#9470CC;}
	.st3{fill:#B7A1E7;}
	.st4{fill:#E5A39B;}
	.st5{fill:#CB7D79;}
	.st6{fill:#231F20;}
	.st7{fill:#F5FFF9;}
	.st8{fill:#27993B;}
	.st9{fill:#FFDF80;}
	.st10{fill:#ECA5CF;}
	.st11{fill:#F2F7FF;}
	.st12{fill:#F3AC09;}
	.st13{fill:#3B3F61;}
	.st14{fill:#FFF2FB;}
	.st15{fill:#80004C;}
	.st16{fill:#FFF200;}
	.st17{fill:#FBB040;}
	.st18{fill:#EDFFFE;}
	.st19{fill:#00A651;}
	.st20{fill:#008078;}
	.st21{fill:#FFF7F0;}
	.st22{fill:#EE9C4F;}
	.st23{fill:#EFC298;}
	.st24{fill:#DB752B;}
	.st25{fill:#B35F23;}
	.st26{fill:#FFFEE6;}
	.st27{fill:#EC76BD;}
	.st28{fill:#662D91;}
	.st29{fill:#CBE6A1;}
	.st30{fill:#E6DE73;}
	.st31{fill:#B3B3B3;}
	.st32{fill:#B8E6CE;}
	.st33{fill:#A1CC66;}
	.st34{fill:#8B5E3C;}
	.st35{fill:#362109;}
	.st36{fill:#AF875D;}
	.st37{fill:#997651;}
	.st38{fill:#CAB196;}
	.st39{fill:#3E2B13;}
	.st40{fill:#E6A13B;}
	.st41{fill:#742D16;}
	.st42{fill:#CC8F34;}
	.st43{fill:#993B1D;}
	.st44{fill:#CC9D6C;}
	.st45{fill:#88B2B7;}
	.st46{fill:#729499;}
	.st47{fill:#90D5D3;}
	.st48{fill:#344D4B;}
	.st49{fill:#98C6CC;}
	.st50{fill:#66452C;}
	.st51{fill:#EEEEEE;}
	.st52{fill:#FFAF4D;}
	.st53{fill:#260E00;}
	.st54{fill:#EE77A8;}
	.st55{fill:#FFF5D8;}
	.st56{fill:#5F7C80;}
	.st57{fill:#EEBED2;}
	.st58{fill:#EED6E0;}
	.st59{fill:#F4C3AF;}
	.st60{fill:#6B564D;}
	.st61{fill:#E6A38A;}
	.st62{fill:#E58274;}
	.st63{fill:#D48A79;}
	.st64{fill:#C28877;}
	.st65{fill:#421B19;}
	.st66{fill:#803330;}
	.st67{fill:#F4AE92;}
	.st68{fill:#EC8EC6;}
	.st69{fill:#ECBDD9;}
</style>
<g>
	<path d="M590.8508911,242.5766602c4.4150391-3.2910156,6.7661133-8.5361328,6.3125-14.1601562
		c-0.3984375-4.9384766-2.8950195-9.2822266-6.8745117-11.9990234c2.6640625-3.9033203,3.4443359-8.7568359,2.137207-13.4013672
		c-1.534668-5.4511719-5.7548828-9.6767578-11.0986328-11.1660156c2.6572266-5.0898438,2.3603516-11.2158203-0.8198242-16.1367188
		c-2.7636719-4.40625-7.3891602-7.1835938-12.4716797-7.5234375c1.1367188-3.9775391,0.6704102-8.1787109-1.3354492-11.9003906
		c-2.8457031-5.2802734-8.2832031-8.5605469-14.1904297-8.5605469c-0.2651367,0-0.5292969,0.0068359-0.7924805,0.0195312
		c-0.152832-2.8867188-1.1088867-5.6855469-2.7788086-8.1240234c-3.0454102-4.4443359-8.0522461-7.0976562-13.3930664-7.0976562
		c-2.0351562,0-4.0063477,0.3779297-5.8691406,1.1240234c-0.4897461-2.8505859-1.7568359-5.5078125-3.6879883-7.7207031
		c-3.0927734-3.5429688-7.5712891-5.5751953-12.2871094-5.5751953c-5.0386047,0-9.6909485,2.3330078-12.7651672,6.4023438
		l-0.1606445,0.21875c-14.8051758,20.6865234-26.9833984,45.5478516-37.2314453,76.0048828l-0.0556641,0.171875
		c-0.2807617,0.8857422-0.5654297,1.7939453-0.8500977,2.7158203c-1.859375,1.9677734-3.2636719,4.3144531-4.0507812,6.7558594
		l-9.6894531,23.3164062c-31.4863281,25.7246094-54.003418,62.296875-68.7958984,111.7558594
		c-12.7783203-53.0175781-34.9072266-97.484375-65.7910156-132.1962891l0.1708984-38.2382812
		c0.3359375-3.5087891-0.2426758-7.1083984-1.6723633-10.4208984c0.1738281-1.7177734,0.3378906-3.4072266,0.487793-5.046875
		l0.0146484-0.1816406c3.3583984-45.4013672,1.1303711-84.5146484-6.8115234-119.5732422l-0.0639648-0.2636719
		c-2.1166992-8.3398438-9.3354492-13.9423828-17.9619141-13.9423828c-8.4960938,0-15.6865234,5.5097656-17.8920898,13.7109375
		l-0.0742188,0.2919922c-0.1181641,0.4960938-0.2358398,0.9941406-0.3520508,1.4931641
		c-0.2231445-0.4609375-0.4477539-0.9208984-0.6728516-1.3798828l-0.1225586-0.2412109
		c-3.2524414-6.2099609-9.3505859-9.9169922-16.3129883-9.9169922c-9.1723633,0-16.9018555,6.5791016-18.3740234,15.4599609
		c-3.4008789-3.1064453-7.7387695-4.8066406-12.3198242-4.8066406c-5.5239258,0-10.9291992,2.5351562-14.4594727,6.78125
		c-3.4770508,4.1826172-4.8901367,9.7099609-3.8759766,15.1650391l0.0585938,0.2949219
		c0.1079102,0.4990234,0.2167969,0.9980469,0.3276367,1.4980469c-0.4003906-0.3183594-0.8007812-0.6357422-1.2006836-0.9501953
		l-0.2167969-0.1669922c-3.2504883-2.4296875-7.0576172-3.7138672-11.0092773-3.7138672
		c-3.8183594,0-7.5185547,1.1845703-10.6928711,3.421875c-7.3310547,4.9863281-10.1064453,14.1767578-6.75,22.3476562
		l0.1191406,0.2792969c0.2075195,0.4658203,0.4165039,0.9326172,0.6269531,1.3994141
		c-0.4575195-0.2304688-0.9150391-0.4599609-1.3730469-0.6875l-0.2431641-0.1171875
		c-2.519043-1.1728516-5.1660156-1.7675781-7.8671875-1.7675781c-6.9350586,0-13.2470703,3.9101562-16.4731445,10.2060547
		c-2.765625,5.3955078-2.6958008,11.6875,0.1425781,17.0234375c-0.5537109-0.0488281-1.1088867-0.0742188-1.6591797-0.0742188
		c-7.6430664,0-14.3867188,4.6914062-17.1801758,11.9511719c-2.7651291,7.1865234-0.8457031,15.1777344,4.8881836,20.3564453
		l0.2280273,0.2011719c0.3881836,0.3300781,0.7783203,0.6611328,1.1694336,0.9912109
		c-0.5229492-0.0107422-1.0546875-0.0205078-1.6044922-0.0283203h-0.2006836
		c-8.5405197,0.0917969-15.6743088,5.7333984-17.7509689,14.0400391
		c-2.0761719,8.3046875,1.5712891,16.6435547,9.0756836,20.7490234l0.2661133,0.1416016
		c32.0190353,16.3447266,69.3730392,28.1513672,114.1992111,36.0966797l0.1767578,0.0292969
		c1.2080078,0.1923828,2.4501953,0.3847656,3.7050781,0.5761719c3.0078125,2.9414062,6.8227539,4.9404297,10.7138672,5.6230469
		l37.0454102,10.4472656c0.2431641,0.0683594,0.4882812,0.1279297,0.7353516,0.1787109
		c30.3632812,34.1347656,50.5751953,77.3642578,61.7666016,132.1230469
		c-8.7680664-6.0791016-18.4467773-11.1494141-29.5419922-15.4785156l-20.3432617-18.1523438
		c-1.824707-1.9199219-4.0507812-3.390625-6.6181641-4.3701172c-0.6542969-0.7050781-1.3022461-1.3984375-1.9370117-2.0722656
		l-0.1259766-0.1318359c-22.4375-23.0048828-44.1884766-40.1308594-66.4980469-52.3554688l-0.237793-0.1259766
		c-2.3369141-1.203125-4.8242188-1.8134766-7.3925781-1.8134766c-5.9125977,0-11.3520508,3.2851562-14.1962891,8.5722656
		c-2.0053711,3.7294922-2.4672852,7.9365234-1.3217773,11.9169922c-6.1303711,0.4189453-11.5068359,4.3662109-13.815918,10.2070312
		c-1.5532227,3.9277344-1.5205078,8.1806641,0.081543,12.0341797c-4.5419922,1.8916016-7.8950195,5.7207031-9.2412109,10.5820312
		c-1.4780273,5.3388672-0.2089844,10.8701172,3.3935547,14.9296875c-4.4438477,2.5292969-7.4145508,7.0351562-7.9926758,12.1728516
		c-0.7333984,5.8183594,1.652832,11.4667969,6.2509766,14.9013672c-4.1367188,3.609375-6.078125,9.0078125-5.2080078,14.5722656
		c0.769043,4.9150391,3.6025391,9.0703125,7.8056641,11.4775391c-2.2294922,3.9091797-2.7138672,8.5800781-1.3212891,12.9013672
		c1.8168945,5.6347656,6.4350586,9.7548828,12.1411133,10.8867188c-1.7612305,4.1113281-1.6992188,8.7841797,0.1928711,12.9238281
		c2.6342773,5.7636719,8.3662109,9.4882812,14.6025391,9.4882812c1.8735352,0,3.7373047-0.3291016,5.5385742-0.9785156
		l0.2827148-0.1074219c23.675293-9.3115234,47.4145508-23.5537109,72.5742188-43.5400391l0.1621094-0.1328125
		c-0.2392578,1.8789062,0.0297852,3.8027344,0.7910156,5.5390625c12.222168,27.9033203,33.8847656,42.8710938,62.6572266,43.2958984
		c3.5615234,3.6982422,6.6914062,10.2509766,9.3032227,19.4804688c0.1708984,8.7919922,0.1748047,17.9394531,0.0117188,27.2060547
		c-0.421875-0.3349609-0.8647461-0.6484375-1.3242188-0.9365234c-2.2729492-1.4238281-4.8896484-2.1767578-7.5668945-2.1767578
		c-4.9482422,0-9.4692383,2.5048828-12.09375,6.7001953c-0.5722656,0.9150391-1.1079102,1.8642578-1.5966797,2.8330078
		c-2.4746094-2.3007812-5.121582-4.6142578-7.8769531-6.8847656c-2.2255859-4.1386719-2.7822266-6.2851562-2.9194336-7.1621094
		c2.2094727-2.6992188,3.3461914-6.0986328,3.2045898-9.5976562c-0.1533203-3.8076172-1.7797852-7.3261719-4.5800781-9.9072266
		c-2.6430664-2.4375-6.0766602-3.7802734-9.6694336-3.7802734c-3.9711914,0-7.7924805,1.6738281-10.4838867,4.5927734
		c-1.6279297,1.7646484-2.9995117,3.7021484-4.0825195,5.7626953c-1.828125-0.8212891-3.8378906-1.2529297-5.8432617-1.2529297
		c-4.8789062,0-9.3652344,2.4492188-12.0004883,6.5517578c-2.0561523,3.1992188-2.7421875,7.0136719-1.9316406,10.7402344
		c0.8110352,3.7265625,3.0195312,6.9111328,6.2192383,8.9677734c1.8574219,1.1933594,3.6157227,2.3398438,5.2885742,3.4482422
		c-0.390625,0.3183594-0.7719727,0.6455078-1.1386719,0.9775391c-5.8349609,5.2685547-6.2944336,14.3066406-1.0239258,20.1455078
		c2.699707,2.9873047,6.5571289,4.7001953,10.5834961,4.7001953c3.5351562,0,6.9291992-1.3056641,9.5380859-3.6611328
		c0.0048828-0.0029297,0.5136719-0.3144531,2.1196289-0.3144531c1.6914062,0,4.7543945,0.3603516,9.7915039,2.0585938
		c-6.8310547,0.3935547-12.4853516,5.6455078-13.3183594,12.5234375
		c-0.9462891,7.8056641,4.6342773,14.9267578,12.4399414,15.8740234
		c7.4897461,0.9082031,15.5224609,4.3779297,24.5527344,10.6054688c2.3505859,7.5292969,3.8637695,15.390625,4.6157227,23.9873047
		c-10.4423828-8.7558594-24.0922852-13.9580078-40.5917969-15.4667969
		c-3.3618164-0.3095703-6.6508789,1.0214844-8.8540039,3.5371094c-2.2080078,2.5185547-3.0839844,5.9736328-2.3432617,9.2402344
		c6.2250977,27.4550781,22.6225586,45.7285156,47.434082,52.8740234
		c-1.7089844,11.0488281-3.5913086,22.4023438-5.5966797,33.7519531
		c-1.2739258,7.2001953,3.059082,14.1572266,10.0786133,16.1826172c1.2880859,0.3730469,2.6220703,0.5625,3.9648438,0.5625
		c5.8251953,0,11.0087891-3.4853516,13.2055664-8.8789062c11.2138672-27.5058594,23.9155273-52.0439453,37.753418-72.9355469
		c9.0678711-4.75,16.0390625-7.2597656,20.1640625-7.2597656c1.1899414,0,1.6689453,0.2207031,1.7524414,0.2646484
		c2.0449219,1.0800781,4.3466797,1.6513672,6.6567383,1.6513672c5.3071289,0,10.1411133-2.9140625,12.6157227-7.6044922
		c3.6699219-6.9541016,0.9995117-15.5976562-5.953125-19.2685547c-2.4570312-1.2978516-5.1098633-2.2519531-7.8979492-2.84375
		c3.8271484-4.125,7.7612305-8.0683594,11.7055664-11.7324219c6.4379883-1.2636719,11.6279297-1.8779297,15.862793-1.8779297
		c4.0444336,0,7.2529297,0.5488281,9.5366211,1.6318359c1.9262695,0.9130859,3.9819336,1.3769531,6.1108398,1.3769531
		c5.4853516,0,10.5449219-3.2011719,12.8896484-8.1552734c3.3671875-7.1054688,0.3256836-15.6259766-6.7797852-18.9941406
		c-0.40625-0.1923828-0.8188477-0.3789062-1.234375-0.5595703c2.6186523-1.4423828,5.2856445-2.8212891,7.9433594-4.1035156
		c6.7602539,1.9238281,13.4306641,2.8994141,19.8281555,2.8994141c19.1708984,0,36.4448242-8.4941406,51.3417969-25.2480469
		c2.2265625-2.5039062,3.1279297-5.9521484,2.4106445-9.2246094c-0.7167969-3.2724609-2.9770508-6.0283203-6.0454102-7.3710938
		c-10.7714844-4.7158203-21.2895508-7.1064453-31.262207-7.1064453c-16.1274414,0-30.960968,6.1279297-44.089386,18.2138672
		c-1.8544922,0.8349609-3.7255859,1.7148438-5.5712891,2.6191406c-2.2084961-5.296875-7.4306641-8.8183594-13.1669922-8.8183594
		c-0.3789062,0-0.7607422,0.015625-1.1328125,0.0458984c-3.7973633,0.2998047-7.2504883,2.0615234-9.7226562,4.9589844
		c-2.4746094,2.8994141-3.6723633,6.5537109-3.3745117,10.2402344c-0.0214844,1.2382812-1.1206055,4.9599609-8.2304688,15.9833984
		c-2.6293945,2.0576172-5.2832031,4.2353516-7.8950195,6.4785156c-2.6826172-2.7128906-6.3515625-4.2597656-10.1416016-4.2597656
		c-0.9794922,0-1.9643555,0.1025391-2.9267578,0.3037109c-7.6958008,1.6113281-12.652832,9.1513672-11.0551758,16.7753906
		c0.175293,1.2548828-0.2128906,4.7958984-3.0493164,14.5253906c-7.019043,8.1943359-13.8393555,17.1201172-20.2441406,26.4912109
		c-0.6542969,0.7773438-1.2255859,1.6279297-1.6699219,2.4804688c-0.5649414,0.8408203-1.1279297,1.6875-1.6889648,2.5400391
		c2.6738281-22.8857422,4.6166992-45.0009766,5.7763672-65.7617188
		c7.4223633-17.0390625,11.9931641-22.7480469,13.7373047-24.4912109
		c28.4716797-0.6220703,49.9277344-15.5830078,62.0581055-43.2753906c1.3442383-3.0683594,1.1362305-6.6269531-0.5561523-9.5185547
		c-1.6928711-2.8916016-4.6938477-4.8144531-8.0273438-5.1435547c-3.1904297-0.3164062-6.347168-0.4765625-9.3823242-0.4765625
		c-24.6831055,0-43.6850586,10.2216797-56.5043945,30.3867188c-0.1054688-14.1054688-0.612793-27.8632812-1.5117188-40.8300781
		c10.7578125-83.03125,33.6264648-137.0576172,71.9580078-169.9941406l22.0283203,2.7324219
		c2.9755859,0.6523438,6.1264648,0.4814453,9.1748047-0.5292969l1.8012695,0.4462891
		c24.8633118,5.6386719,47.0263977,8.3789062,67.7558899,8.3789062h0.003418c5.5673828,0,11.1245117-0.2011719,16.5141602-0.5986328
		l0.3017578-0.0273438c7.4003906-0.7597656,13.1362305-6.2119141,14.2729492-13.5673828
		C596.9402466,251.5717773,594.9910278,246.1791992,590.8508911,242.5766602z M595.0916138,256.9829102
		c-1.0664062,6.8984375-6.4462891,12.0126953-13.3867188,12.7255859l-0.2719727,0.0234375
		c-5.3671875,0.3955078-10.8984375,0.5966797-16.4418945,0.5966797h-0.003418
		c-20.6542969,0-42.7446289-2.7324219-67.5346985-8.3535156l-2.0644531-0.5126953l-0.1396484,0.046875
		c-2.9194336,0.9951172-5.8647461,1.1806641-8.824707,0.5390625l-22.512207-2.7949219l-0.1674805,0.1435547
		c-38.6323242,33.09375-61.6591797,87.3564453-72.4697266,170.8671875
		c0.9311523,13.5751953,1.4414062,27.9072266,1.5170898,42.5986328l0.0092773,1.7705078l0.918457-1.5136719
		c12.6289062-20.8232422,31.6606445-31.3818359,56.565918-31.3818359c3.0024414,0,6.1259766,0.1591797,9.2836914,0.4726562
		c3.0166016,0.296875,5.7314453,2.0371094,7.2626953,4.6533203c1.5317383,2.6162109,1.7197266,5.8349609,0.503418,8.6113281
		c-11.9907227,27.3730469-33.2084961,42.1318359-61.3603516,42.6806641l-0.1958008,0.0039062l-0.1411133,0.1357422
		c-1.6777344,1.6162109-6.4135742,7.2900391-14.1347656,25.03125l-0.0405273,0.171875
		c-1.1938477,21.4042969-3.2207031,44.2490234-6.0249023,67.9003906l-0.2524414,2.1289062l1.168457-1.7978516
		c0.9428711-1.4511719,1.8916016-2.8886719,2.8725586-4.3544922c0.4384766-0.8349609,0.9692383-1.625,1.6069336-2.3867188
		c6.4360352-9.4130859,13.2587891-18.3378906,20.2788086-26.5273438l0.1000977-0.1845703
		c2.3720703-8.1240234,3.3896484-13.046875,3.1040039-15.0810547c-1.4902344-7.1171875,3.1196289-14.1269531,10.2758789-15.625
		c0.8950195-0.1875,1.8110352-0.2822266,2.7216797-0.2822266c3.671875,0,7.222168,1.5625,9.7412109,4.2880859l0.328125,0.3544922
		l0.3657227-0.3154297c2.7373047-2.3613281,5.5244141-4.6523438,8.2841797-6.8105469l0.1118164-0.1220703
		c5.5561523-8.6083984,8.3945312-14.1855469,8.4345703-16.6279297c-0.2783203-3.46875,0.8359375-6.8642578,3.1367188-9.5605469
		c2.2988281-2.6933594,5.5097656-4.3310547,9.0419922-4.6113281c0.3466797-0.0283203,0.7011719-0.0419922,1.0527344-0.0419922
		c5.5039062,0,10.5,3.4882812,12.4321289,8.6816406l0.1933594,0.5185547l0.496582-0.2451172
		c2.0166016-0.9960938,4.0693359-1.9638672,6.1005859-2.8769531l0.1337891-0.0888672
		c12.9526367-11.9462891,27.5781555-18.0039062,43.4712219-18.0039062c9.8334961,0,20.2167969,2.3623047,30.8608398,7.0224609
		c2.7763672,1.2148438,4.8212891,3.7080078,5.4702148,6.6699219c0.6484375,2.9599609-0.1669922,6.0800781-2.1811523,8.3457031
		c-14.6992188,16.5302734-31.722168,24.9121094-50.5966797,24.9121094c-6.3608704,0-13.0005188-0.9804688-19.7344055-2.9130859
		l-0.1826172-0.0527344l-0.171875,0.0830078c-3.0380859,1.4619141-6.0888672,3.0478516-9.0688477,4.7138672l-0.9111328,0.5097656
		l0.9682617,0.390625c0.71875,0.2900391,1.4379883,0.6044922,2.1367188,0.9365234
		c6.6074219,3.1318359,9.4360352,11.0546875,6.3046875,17.6621094c-2.1801758,4.6064453-6.8852539,7.5830078-11.9858398,7.5830078
		c-1.9794922,0-3.8911133-0.4306641-5.6821289-1.28125c-2.4189453-1.1464844-5.7714844-1.7275391-9.965332-1.7275391
		c-4.3310547,0-9.628418,0.6298828-16.1953125,1.9248047l-0.1391602,0.0273438l-0.1040039,0.0966797
		c-4.2070312,3.9023438-8.4033203,8.1210938-12.4716797,12.5400391l-0.6147461,0.6679688l0.8925781,0.1630859
		c3.0112305,0.5498047,5.8696289,1.5322266,8.4951172,2.9189453c6.465332,3.4130859,8.9482422,11.4501953,5.5351562,17.9169922
		c-2.3007812,4.3613281-6.7958984,7.0712891-11.730957,7.0712891c-2.1474609,0-4.2880859-0.53125-6.1904297-1.5361328
		c-0.2695312-0.1416016-0.9160156-0.3798828-2.21875-0.3798828c-4.3652344,0-11.34375,2.5009766-20.7421875,7.4345703
		l-0.1132812,0.0595703l-0.0708008,0.1064453c-13.9023438,20.9697266-26.659668,45.6035156-37.9169922,73.2177734
		c-2.0429688,5.015625-6.862793,8.2558594-12.2797852,8.2558594c-1.2485352,0-2.4887695-0.1757812-3.6870117-0.5234375
		c-6.5273438-1.8828125-10.5561523-8.3525391-9.3720703-15.0478516c2.0332031-11.5058594,3.9404297-23.015625,5.6679688-34.2099609
		l0.0673828-0.4375l-0.4257812-0.1201172c-24.675293-6.9521484-40.9814453-25.0214844-47.1557617-52.2529297
		c-0.6704102-2.9560547,0.121582-6.0810547,2.1196289-8.3613281c1.8037109-2.0585938,4.4077148-3.2392578,7.144043-3.2392578
		c0.2875977,0,0.5761719,0.0126953,0.8662109,0.0400391c16.7797852,1.5341797,30.5581055,6.9238281,40.953125,16.0175781
		l0.9238281,0.8085938l-0.0961914-1.2236328c-0.7236328-9.2099609-2.296875-17.578125-4.8100586-25.5820312l-0.0512695-0.1640625
		l-0.1411133-0.0976562c-9.2246094-6.3837891-17.4492188-9.9404297-25.1430664-10.8730469
		c-7.2583008-0.8808594-12.4472656-7.5029297-11.5673828-14.7607422
		c0.8232422-6.7978516,6.7358398-11.9140625,13.5898438-11.6601562l1.2231445,0.0390625l-0.8457031-0.8847656
		c-0.2753906-0.2880859-0.5532227-0.5751953-0.8334961-0.8623047l-0.0830078-0.0859375l-0.112793-0.0380859
		c-5.3393555-1.8271484-8.6044922-2.2109375-10.4038086-2.2109375c-1.590332,0-2.4746094,0.2880859-2.7705078,0.5566406
		c-2.4438477,2.2050781-5.6000977,3.4189453-8.887207,3.4189453c-3.7441406,0-7.3310547-1.5927734-9.8413086-4.3701172
		c-4.9008789-5.4296875-4.4736328-13.8339844,0.9521484-18.7333984c0.5166016-0.4667969,1.0629883-0.9257812,1.6235352-1.3623047
		l0.5473633-0.4267578l-0.5776367-0.3837891c-1.8466797-1.2294922-3.7978516-2.5029297-5.8725586-3.8369141
		c-2.9750977-1.9121094-5.0288086-4.8730469-5.7832031-8.3388672c-0.7539062-3.4648438-0.1162109-7.0117188,1.7958984-9.9863281
		c2.4501953-3.8154297,6.6220703-6.0927734,11.1591797-6.0927734c2.0170898,0,4.0390625,0.4697266,5.8466797,1.359375
		l0.4453125,0.2197266l0.222168-0.4433594c1.0732422-2.140625,2.46875-4.1474609,4.1469727-5.9677734
		c2.5024414-2.7138672,6.0556641-4.2705078,9.7485352-4.2705078c3.340332,0,6.5336914,1.2480469,8.9916992,3.5146484
		c2.6035156,2.4003906,4.1162109,5.6728516,4.2587891,9.2138672c0.1342773,3.3232422-0.9707031,6.5488281-3.1118164,9.0830078
		l-0.1386719,0.1630859l0.0234375,0.2138672c0.105957,0.9658203,0.6499023,3.2666016,3.1074219,7.8193359l0.1220703,0.1484375
		c2.949707,2.4287109,5.7753906,4.9072266,8.3974609,7.3642578l0.4970703,0.4667969l0.2954102-0.6142578
		c0.5507812-1.1445312,1.1704102-2.2695312,1.8427734-3.3427734c2.440918-3.9023438,6.6450195-6.2314453,11.2460938-6.2314453
		c2.4892578,0,4.9223633,0.7001953,7.0361328,2.0244141c0.715332,0.4482422,1.3867188,0.9619141,1.9946289,1.5283203
		l0.8193359,0.7626953l0.0214844-1.1191406c0.1831055-9.6660156,0.1850586-19.2119141,0.0063477-28.3730469l-0.0185547-0.1259766
		c-2.6967773-9.5498047-5.9648438-16.3183594-9.7138672-20.1191406l-0.1445312-0.1455078l-0.2050781-0.0029297
		c-28.453125-0.3505859-49.8789062-15.1162109-61.9609375-42.6992188c-0.8623047-1.96875-1.0263672-4.2021484-0.4619141-6.2900391
		l0.4111328-1.5214844l-2.440918,2.0224609c-25.0800781,19.9238281-48.7358398,34.1171875-72.3188477,43.3935547
		l-0.2539062,0.0957031c-1.6928711,0.6103516-3.4428711,0.9199219-5.2011719,0.9199219
		c-5.8452148,0-11.2197266-3.4951172-13.6923828-8.9042969c-1.8603516-4.0703125-1.8349609-8.6894531,0.0703125-12.671875
		l0.2895508-0.6054688l-0.6635742-0.1044922c-5.6259766-0.8808594-10.2197266-4.8349609-11.9873047-10.3193359
		c-1.3574219-4.2099609-0.8149414-8.7734375,1.487793-12.5214844l0.2792969-0.4541016l-0.4707031-0.2490234
		c-4.1743164-2.2138672-6.9975586-6.2246094-7.7446289-11.0019531c-0.8491211-5.4277344,1.1503906-10.6835938,5.3486328-14.0595703
		l0.5244141-0.421875l-0.5551758-0.3798828c-4.6352539-3.1757812-7.0712891-8.6669922-6.355957-14.3398438
		c0.565918-5.0292969,3.5688477-9.4091797,8.0322266-11.7138672l0.5957031-0.3076172l-0.4648438-0.4833984
		c-3.6923828-3.8388672-5.0356445-9.2402344-3.5932617-14.4482422c1.3076172-4.7236328,4.6313477-8.4072266,9.1186523-10.1083984
		l0.4985352-0.1894531l-0.2207031-0.4853516c-1.6923828-3.7285156-1.7885742-7.8955078-0.2709961-11.7333984
		c2.2436523-5.6738281,7.5693359-9.4443359,13.5683594-9.6054688l0.6733398-0.0185547l-0.2124023-0.6386719
		c-1.2958984-3.8994141-0.9199219-8.0732422,1.0595703-11.7539062c2.6694336-4.9638672,7.7714844-8.046875,13.3154297-8.046875
		c2.4077148,0,4.7407227,0.5722656,6.9365234,1.703125l0.215332,0.1142578
		c22.2192383,12.1757812,43.8935547,29.2421875,66.2631836,52.1787109l0.1118164,0.1162109
		c0.6586914,0.6992188,1.331543,1.4199219,2.0117188,2.1523438l0.0800781,0.0869141l0.1108398,0.0410156
		c2.4711914,0.9267578,4.609375,2.328125,6.3842773,4.1943359l20.4404297,18.2412109l0.1513672,0.0927734
		c11.4897461,4.4765625,21.4462891,9.7470703,30.4394531,16.1152344l1.027832,0.7275391l-0.2485352-1.234375
		c-11.1894531-55.5859375-31.5878906-99.3984375-62.3608398-133.9433594l-0.1132812-0.1269531l-0.1674805-0.03125
		c-0.2758789-0.0517578-0.5483398-0.1162109-0.8183594-0.1923828l-37.0942383-10.4580078
		c-3.7915039-0.6679688-7.4667969-2.6123047-10.3486328-5.4736328l-0.1162109-0.1152344l-0.1611328-0.0244141
		c-1.3066406-0.1992188-2.6005859-0.3994141-3.8603516-0.6005859l-0.159668-0.0263672
		c-44.7250977-7.9267578-81.9873047-19.703125-113.9155197-36.0009766l-0.2421875-0.1289062
		c-7.0996094-3.8847656-10.5498047-11.7734375-8.5859375-19.6298828c1.965332-7.8583984,8.7133789-13.1962891,16.7997971-13.2822266
		h0.237793c0.9794922,0.015625,1.9624023,0.0351562,2.9482422,0.0595703l1.4331055,0.0351562l-1.1005859-0.9189453
		c-0.7563477-0.6318359-1.5078125-1.265625-2.2514648-1.8984375l-0.206543-0.1826172
		c-5.4257812-4.9003906-7.2416992-12.4589844-4.6259766-19.2558594c2.6430664-6.8710938,9.0205078-11.3105469,16.246582-11.3105469
		c0.8320312,0,1.6757812,0.0605469,2.5083008,0.1796875l1.0415039,0.1484375l-0.5419922-0.9013672
		c-3.1347656-5.2128906-3.359375-11.5390625-0.6015625-16.9199219c3.0546875-5.9599609,9.0258789-9.6621094,15.5834961-9.6621094
		c2.5541992,0,5.059082,0.5634766,7.4418945,1.671875l0.2246094,0.1083984
		c0.8774414,0.4375,1.7548828,0.8789062,2.6328125,1.3271484l1.2783203,0.6523438l-0.5961914-1.3056641
		c-0.4091797-0.8964844-0.8129883-1.7929688-1.2109375-2.6875l-0.1074219-0.2519531
		c-3.1757812-7.7294922-0.5493164-16.4238281,6.3935547-21.1464844c3.0117188-2.1220703,6.512207-3.2441406,10.1235352-3.2441406
		c3.734375,0,7.3344727,1.2158203,10.4130859,3.5166016l0.1918945,0.1474609
		c0.7700195,0.6064453,1.5385742,1.21875,2.3066406,1.8369141l1.1176758,0.8994141l-0.3164062-1.3994141
		c-0.2172852-0.9609375-0.4296875-1.921875-0.6362305-2.8779297l-0.0532227-0.2685547
		c-0.9594727-5.1611328,0.3754883-10.3886719,3.6621094-14.3427734c3.3427734-4.0195312,8.4604492-6.4199219,13.6904297-6.4199219
		c4.6401367,0,9.0166016,1.8466797,12.3242188,5.1992188l0.7368164,0.7460938l0.1162109-1.0419922
		c0.987793-8.8691406,8.5180664-15.5566406,17.5166016-15.5566406c6.5830078,0,12.3505859,3.5068359,15.4277344,9.3818359
		l0.1108398,0.21875c0.4316406,0.8789062,0.8608398,1.7646484,1.2871094,2.6523438l0.6196289,1.2929688l0.3183594-1.3974609
		c0.2192383-0.9609375,0.4423828-1.9189453,0.6689453-2.8691406l0.0678711-0.2666016
		c2.0864258-7.7578125,8.8886719-12.9707031,16.9262695-12.9707031c8.1611328,0,14.9902344,5.2998047,16.9936523,13.1904297
		l0.0566406,0.2363281c7.9199219,34.9609375,10.140625,73.9775391,6.7895508,119.28125l-0.0131836,0.1611328
		c-0.1533203,1.6787109-0.3212891,3.4091797-0.5,5.1679688l-0.0131836,0.1308594l0.0527344,0.1210938
		c1.4003906,3.1894531,1.9692383,6.6621094,1.6435547,10.0898438l-0.175293,38.6669922l0.1274414,0.1435547
		c31.1918945,35.0029297,53.4399414,79.9941406,66.1264648,133.7255859l0.4345703,1.8388672l0.5322266-1.8134766
		c14.7387695-50.2226562,37.3413086-87.2304688,69.0976562-113.1376953l0.0976562-0.0800781l9.7998047-23.5859375
		c0.7666016-2.3730469,2.121582-4.6191406,3.9179688-6.4960938l0.081543-0.0849609l0.0351562-0.1132812
		c0.2954102-0.9580078,0.5908203-1.9023438,0.8813477-2.8183594l0.0512695-0.1591797
		c10.215332-30.3603516,22.3496094-55.1347656,37.0966797-75.7402344l0.1455078-0.1982422
		c2.8828125-3.8164062,7.2446289-6.0048828,11.9668274-6.0048828c4.4272461,0,8.6308594,1.9072266,11.5336914,5.2333984
		c1.9462891,2.2294922,3.1728516,4.9404297,3.546875,7.8388672l0.0864258,0.6679688l0.6147461-0.2763672
		c1.9086914-0.8574219,3.9487305-1.2919922,6.0625-1.2919922c5.0112305,0,9.7094727,2.4902344,12.5678711,6.6621094
		c1.6601562,2.4248047,2.5673828,5.2265625,2.6230469,8.1015625l0.0102539,0.53125l0.5302734-0.0429688
		c0.4082031-0.0332031,0.8198242-0.0498047,1.2329102-0.0498047c5.5390625,0,10.6391602,3.0791016,13.3105469,8.0351562
		c1.9794922,3.6728516,2.3603516,7.8417969,1.0732422,11.7382812l-0.2114258,0.6396484l0.6733398,0.0175781
		c5.0019531,0.1269531,9.6015625,2.7753906,12.3081055,7.0908203c3.1000977,4.796875,3.2851562,10.8027344,0.4819336,15.6748047
		l-0.3349609,0.5820312l0.6542969,0.1542969c5.3681641,1.2578125,9.4794922,5.2304688,10.9980469,10.6259766
		c1.2719727,4.5175781,0.4394531,9.2441406-2.284668,12.96875l-0.3149414,0.4306641l0.4506836,0.2861328
		c3.9672852,2.5214844,6.4648438,6.7216797,6.8520508,11.5234375c0.4423828,5.4853516-1.9555664,10.5830078-6.4145508,13.6376953
		l-0.5561523,0.3808594l0.5258789,0.4208984C593.9231567,246.3051758,595.9309692,251.5561523,595.0916138,256.9829102z"/>
	<path d="M587.1951294,229.2202148c-0.2304688-2.8603516-2.1962891-5.0292969-5.0200195-5.5292969
		c-6.3417969-0.9541016-12.9931641-1.6357422-19.8012695-2.0283203c6.2060547-2.8339844,12.1606445-5.8798828,17.7338867-9.0722656
		c2.4438477-1.4941406,3.4873047-4.234375,2.6586914-6.9794922c-0.8295898-2.7460938-3.2089844-4.4296875-6.0742188-4.3457031
		c-7.6723633,0.4863281-15.6030273,1.4326172-23.6054688,2.8173828
		c6.4882812-4.8916016,12.6054688-10.0283203,18.2163086-15.2978516c2.4423828-2.4287109,2.1425781-5.6220703,0.7709961-7.6953125
		c-1.4179688-2.3164062-4.0263672-3.3925781-6.6586914-2.7382812c-7.4047852,2.0439453-14.9746094,4.5927734-22.5307617,7.5859375
		c5.3496094-6.1142578,10.2871094-12.3935547,14.7021484-18.7001953c1.5751953-2.3925781,1.3525391-5.3154297-0.5664062-7.4472656
		c-1.9204102-2.1337891-4.7993164-2.6630859-7.3461914-1.3457031c-5.6142578,3.0898438-11.3129883,6.5878906-16.965332,10.4121094
		c3.2109375-6.0214844,6.0927734-12.0566406,8.5825195-17.9765625c1.0341797-2.6708984,0.2001953-5.4804688-2.125-7.1591797
		c-2.3271484-1.6816406-5.2529297-1.5927734-7.465332,0.234375c-5.8017578,5.0458984-11.5283203,10.6132812-17.0458984,16.5712891
		c2.1855469-7.8261719,3.9272461-15.6210938,5.184082-23.2011719l0.0024414-0.0146484
		c0.387207-2.8378906-1.0756836-5.3789062-3.7270508-6.4726562c-2.6523438-1.09375-5.4780579-0.3300781-7.2070618,1.9580078
		c-14.2202148,19.8701172-25.9584961,43.8710938-35.887207,73.3818359c-0.6156006,1.9407349-1.24646,3.9746094-1.8684082,6.0858765
		c-1.2514648,0.9816284-2.2407227,2.3279419-2.6765137,3.9310913l-10.9086914,26.2495728
		c-40.0341797,31.6919556-65.4165039,82.0892944-78.800293,157.055603
		c-1.2275391-9.7507324-2.6959229-19.2456055-4.4211426-28.4804688
		c-11.6923828-62.5865479-35.5089111-113.5578003-70.8699951-151.8390503
		c0.1444092-0.4685669,0.2567139-0.9587402,0.3256836-1.4728394l0.1861572-41.0707397
		c0.3326416-2.4873047-0.2963867-4.9455566-1.5285645-7.0042114c0.3364258-3.0193481,0.6246338-5.9517822,0.8811035-8.7575684
		c3.2841797-44.3994141,1.1279297-82.5478516-6.5952148-116.6376953c-0.9799805-3.8613281-4.2016602-6.375-8.206543-6.4033203
		h-0.0673828c-3.9716797,0-7.1987305,2.4697266-8.230957,6.3085938l-0.003418,0.0136719
		c-2.6142578,10.9648438-4.6806641,22.5078125-6.1489258,34.3417969
		c-4.0449219-11.21875-8.6088867-22.0205078-13.5844727-32.1494141c-1.8481445-3.5283203-5.5625-5.2275391-9.4663086-4.3261719
		c-3.9003906,0.9003906-6.4956055,4.0634766-6.6118164,8.0742188c-0.0019531,9.4394531,0.4760742,19.2861328,1.4213867,29.3007812
		c-5.4707031-8.4423828-11.2041016-16.4628906-17.0683594-23.875c-2.5517578-3.0595703-6.5415039-3.9375-10.1669922-2.2314453
		c-3.6220703,1.703125-5.4912109,5.3427734-4.7578125,9.2871094c2.3764648,11.0175781,5.496582,22.3212891,9.2827148,33.6308594
		c-8.496582-8.3769531-17.277832-16.1494141-26.1347656-23.1318359c-3.0166016-2.2548828-6.9545898-2.2832031-10.0185547-0.0820312
		c-2.9067383,1.9384766-5.0219727,5.8847656-3.1904297,10.34375c4.5820312,10.3017578,9.9482422,20.7275391,15.9663086,31.0205078
		c-10.0263672-6.4580078-20.2114258-12.2705078-30.3139648-17.296875
		c-3.6108398-1.6816406-7.5952148-0.7753906-10.1489258,2.3095703c-2.5527344,3.0830078-2.6938477,7.1728516-0.3510742,10.4296875
		c5.7324219,7.5039062,12.0908203,15.0380859,18.9199219,22.4189453
		c-9.4667969-3.3847656-18.8925781-6.2763672-28.0576172-8.6064453c-3.8847656-0.8847656-7.5878906,0.8447266-9.4331055,4.3984375
		c-1.8447266,3.5527344-1.1196289,7.5800781,1.8579102,10.2695312c8.578125,7.3115234,17.9208984,14.3984375,27.7954102,21.0849609
		c-11.8334961-1.4960938-23.5302734-2.3398438-34.8110352-2.5107422c-3.9829102,0.0419922-7.1845703,2.5800781-8.1562424,6.4648438
		c-0.9716797,3.8837891,0.6669922,7.6337891,4.1865158,9.5595703
		c31.121582,15.8857422,67.5595703,27.3857422,111.4042969,35.1572266c2.5712891,0.4099121,5.2614746,0.8189697,8.0290527,1.2096558
		c1.6506348,2.4169312,4.168457,4.2271729,7.0864258,4.595459l37.6243896,10.6106567
		c0.9185791,0.1159668,1.8001709,0.0667114,2.6295166-0.112854c38.4494629,41.5725708,62.5267334,98.1189575,72.4360352,170.6968384
		c-10.3925781-12.4946289-25.3933105-25.1337891-50.8769531-34.6777344l-0.0092773-0.0021973
		c-0.1274414-0.1832275-0.2421875-0.3704834-0.3939209-0.5456543l-21.4151611-19.1108398
		c-1.0876465-1.2558594-2.5627441-2.0402832-4.1159668-2.3823242c-1.4772949-1.6347656-2.9293213-3.196167-4.3276367-4.6804199
		c-21.7348633-22.2851562-42.7163086-38.8251953-64.1542969-50.5732422
		c-2.5390625-1.3066406-5.4165039-0.7705078-7.3325195,1.3652344c-1.9150391,2.1347656-2.1323242,5.0585938-0.5527344,7.4482422
		l0.0078125,0.0117188c4.4228516,6.2910156,9.3710938,12.5605469,14.7285156,18.6611328
		c-7.5576172-2.9785156-15.1328125-5.5136719-22.5566406-7.546875c-2.7719727-0.6806641-5.4467773,0.5039062-6.815918,3.0263672
		c-1.3686523,2.5205078-0.9023438,5.4160156,1.1987305,7.3837891c4.8027344,4.2490234,10.0146484,8.4375,15.515625,12.4697266
		c-6.7524414-0.9960938-13.4052734-1.6777344-19.8144531-2.0292969c-2.8666992-0.0595703-5.2182617,1.6435547-6.0244141,4.3974609
		c-0.8051758,2.7529297,0.2617188,5.4833984,2.7304688,6.9638672c6.7011719,3.7626953,13.871582,7.2802734,21.3427734,10.4716797
		c-8.1044922,0.5771484-16.0317383,1.5615234-23.6044922,2.9326172c-2.6425781,0.5488281-4.527832,2.6494141-4.800293,5.3349609
		c-0.3383789,2.4794922,0.7758789,5.4873047,4.0424805,6.6220703c7.3251953,2.3115234,15.0644531,4.2880859,23.0336914,5.8847656
		c-7.8144531,2.2216797-15.3725586,4.8066406-22.5058594,7.6982422c-2.6171875,1.140625-4.0214844,3.7089844-3.578125,6.5449219
		c0.4438477,2.8330078,2.5717773,4.8496094,5.4360352,5.1386719c6.4018555,0.4589844,13.0874023,0.625,19.8989258,0.4863281
		c-5.9638672,3.3046875-11.6640625,6.8027344-16.9760742,10.4179688c-2.3173828,1.6679688-3.1479492,4.4755859-2.1157227,7.1523438
		c1.03125,2.6767578,3.5400391,4.1943359,6.3974609,3.8759766c7.6074219-1.0791016,15.440918-2.6376953,23.3164062-4.6386719
		c-6.0888672,5.3798828-11.7900391,10.9746094-16.9750977,16.6621094c-1.8681641,2.1591797-2.0258789,5.0830078-0.4013672,7.4482422
		c1.1884766,1.7304688,3.0014648,2.6767578,4.9501953,2.6757812c0.7133789,0,1.4453125-0.1259766,2.1713867-0.3886719
		c22.7392578-8.9443359,45.6411133-22.703125,70.0205078-42.0703125c1.4375-1.1831055,2.9321289-2.4318848,4.4536133-3.7318115
		c1.9677734,0.1990967,3.9943848-0.2974854,5.4873047-1.6099854l22.206543-14.2918701
		c30.095459,11.5197754,43.9693604,27.0308838,54.2242432,42.2105713
		c1.0214844,9.5605469,1.8111572,19.3850098,2.3707275,29.4741211c-3.5869141-6.1218262-7.8007812-10.5540771-12.7088623-13.3554688
		c-0.2387695-0.1363525-0.4866943-0.239502-0.7386475-0.3188477c-12.154541-22.2224121-31.6577148-32.0046387-58.5100098-29.3464355
		c11.1569824,25.4714355,30.0803223,37.7961426,56.7668457,36.9788818
		c6.8428955,4.5837402,12.1035156,13.9320068,16.0463867,28.477417c0.6859131,32.125-0.793457,66.7573242-4.4304199,103.9663086
		c-1.0927734-4.8511963-2.416626-9.4602051-3.96521-13.826416c-0.0726318-0.5419922-0.2696533-1.0622559-0.5709229-1.5310059
		c-1.9667969-5.3029785-4.2368164-10.2750244-6.7871094-14.9246826c-3.104126-11.1087646-5.5662842-23.559082-0.4104004-31.8013916
		c1.1013184-1.7612305,0.5668945-4.081543-1.1943359-5.1835938c-1.7619629-1.1037598-4.081665-0.5673828-5.1835938,1.1945801
		c-3.605957,5.7644043-4.4775391,12.5958252-3.9743652,19.6512451
		c-6.7814941-8.5330811-14.4892578-15.8696289-22.5975342-22.4066162c-5.8712158-10.2539062-6.772583-16.4133301-3.00354-20.4996338
		c1.4086914-1.5274658,1.3125-3.9071045-0.2143555-5.3151855c-1.5285645-1.4100342-3.9077148-1.3126221-5.3151855,0.2142334
		c-4.5469971,4.9298096-4.9824219,10.7570801-3.5471191,16.5563965c-4.0119629-2.8093262-8.0529785-5.4890137-12.0673828-8.0686035
		c-1.7484131-1.1228027-4.0748291-0.6165771-5.1976318,1.1313477c-1.1228027,1.7471924-0.6165771,4.0742188,1.1313477,5.1976318
		c7.6864014,4.9393311,15.3258057,10.1114502,22.5686035,15.8397217c0.1358643,0.1473389,0.2840576,0.2720947,0.4385986,0.3937988
		c-6.2668457-0.6240234-12.5498047,0.3515625-17.496582,4.8186035c-1.541626,1.3922119-1.6628418,3.770752-0.270752,5.3127441
		c1.392334,1.5410156,3.770752,1.6622314,5.3128662,0.270752c4.6264648-4.1777344,12.7745361-3.9992676,24.8818359,0.5279541
		c7.2701416,7.1899414,13.7901611,15.305542,19.1016846,24.7718506c0.1125488,0.2578125,0.2507324,0.4970703,0.4125977,0.717041
		c0.6253662,1.1359863,1.2280273,2.2971191,1.817627,3.4726562c-9.0175781-5.2998047-17.5976562-8.4130859-25.9924316-9.4310303
		c-2.0643311-0.2564697-3.9370117,1.2183838-4.1867676,3.2808838c-0.2504883,2.0625,1.21875,3.9370117,3.2807617,4.1868896
		c10.0454102,1.2188721,20.5834961,5.9627686,32.1800537,14.4718018c4.6083984,13.2371826,7.1207275,28.7485352,6.725708,47.2897949
		c-0.6105957,4.7393799-1.2617188,9.5473633-1.9407959,14.3996582
		c-8.2879639-21.7683105-25.1523438-33.8265381-50.6099854-36.1550293
		c6.1704102,27.2127686,22.5209961,42.8990479,49.0432129,47.0688477
		c-2.1027832,14.2171631-4.4788818,28.8369141-7.1066895,43.7070312c-0.3348389,1.8935547,0.8131104,3.7351074,2.6607666,4.2683105
		c0.3470459,0.1003418,0.6984863,0.1481934,1.0438232,0.1481934c1.4943848,0,2.8927002-0.895752,3.4821777-2.3422852
		c11.9624023-29.3430176,25.3913574-55.0187988,40.2132568-77.0009766
		c12.3428955-6.6374512,25.8580322-12.5947266,34.0836182-8.2509766c1.8366699,0.9697266,4.1135254,0.2663574,5.0827637-1.5695801
		c0.9697266-1.8374023,0.2668457-4.112915-1.5698242-5.0827637c-8.0643311-4.2574463-18.0751953-2.2585449-28.5134277,2.1201172
		c10.1568604-13.529541,20.9213867-25.4273682,32.2734375-35.6856689c12.1318359-2.5640869,25.5570068-4.4327393,34.8522949-0.02771
		c0.5202637,0.2468262,1.0683594,0.3630371,1.6082764,0.3630371c1.4080811,0,2.758667-0.7939453,3.4014893-2.1513672
		c0.8894043-1.8775635,0.088623-4.1201172-1.7883301-5.0096436c-7.7438965-3.6695557-17.2199707-3.8790283-26.7224121-2.7420654
		c11.8024902-9.2287598,24.1994629-16.7756348,37.1665039-22.6430664
		c24.5698547,8.3427734,45.9336243,2.3203125,64.0854797-18.0925293
		c-24.958374-10.9268799-46.7060852-7.4665527-65.2472229,10.3608398
		c-8.3775635,3.6711426-16.5186768,8.0163574-24.425293,13.0163574c2.4219971-5.0349121,3.8782959-9.8032227,3.5366211-14.1223145
		c-0.1640625-2.0716553-1.9786377-3.6186523-4.0467529-3.4528809c-2.0710449,0.1640625-3.6169434,1.975708-3.4528809,4.046875
		c0.4702148,5.9398193-5.3146973,15.3994141-10.8669434,23.8791504c-4.0471191,3.1101074-8.0233154,6.4143066-11.9335938,9.8969727
		c-0.4631348,0.2646484-0.8574219,0.6162109-1.1652832,1.036377c-3.2341309,2.9213867-6.416748,5.9830322-9.5559082,9.1601562
		c0.8510742-4.4173584,1.1401367-8.3415527,0.4598389-11.5927734c-0.4255371-2.0332031-2.4171143-3.3359375-4.4526367-2.9111328
		c-2.0330811,0.4255371-3.3365479,2.4189453-2.9110107,4.4526367c1.0439453,4.9873047-1.8759766,14.9105225-3.9200439,21.7209473
		c-7.4237061,8.5231934-14.5615234,17.8009033-21.4003906,27.8474121c-0.3637695,0.3605957-0.642334,0.7823486-0.8306885,1.2446289
		c-10.2716064,15.2358398-19.8771973,32.1813965-28.7888184,50.8405762
		c2.1585693-13.6889648,4.0803223-27.065918,5.7456055-40.0007324c3.7077637-28.8103027,6.2543945-56.0246582,7.6400146-81.7753906
		c8.0953369-18.9191895,14.9622803-29.7651367,20.4108887-32.2111816c0.2032471-0.0913086,0.3880615-0.2055664,0.5665283-0.3262939
		c26.0599365,0.4185791,44.5915527-11.9072266,55.5822754-36.9984131
		c-27.2717285-2.699707-46.9567871,7.4436035-59.0681152,30.4077148l-0.1625977,0.0540771
		c-5.3105469,2.3846436-10.605957,8.6544189-16.5053711,19.7132568c0.8068848-25.3950195,0.4182129-49.3181152-1.1685791-71.9033203
		c11.3419189-88.5615234,36.5860596-146.1191406,79.2845459-180.6236572l0.0354004,0.0136108l27.1115723,3.3657837
		c1.9145508,0.5357666,3.956543,0.1046753,5.6434326-0.9279785c1.9371338,0.5124512,3.8282471,0.9903564,5.6395264,1.43396
		c23.9897766,5.4404297,45.6318665,8.1259766,65.6904602,8.125c5.3227539,0,10.5375977-0.1894531,15.6513672-0.5664062
		c2.8496094-0.2919922,4.9736328-2.3134766,5.4121094-5.1474609c0.4379883-2.8359375-0.9711914-5.4013672-3.6020508-6.5419922
		c-7.1269531-2.8740234-14.6894531-5.4453125-22.5078125-7.6523438c7.9584961-1.609375,15.6938477-3.6005859,23.0361328-5.9316406
		C585.8279419,234.5366211,587.4260864,232.0786133,587.1951294,229.2202148z M242.8161926,207.0512695
		c-43.7373047-7.7519531-80.0834961-19.2207031-111.1025391-35.0546875
		c-3.7617111-2.0585938-4.3354416-5.8300781-3.684082-8.4335938c0.6513672-2.6044922,2.9267578-5.6621094,7.184082-5.7070312
		c11.8969727,0.1796875,24.2734375,1.1142578,36.7851562,2.7753906l2.1313477,0.2822266l-1.7875977-1.1943359
		c-10.4931641-7.0107422-20.4057617-14.4794922-29.4521484-22.1894531
		c-3.1816406-2.8740234-2.8662109-6.6748047-1.6298828-9.0566406c1.237793-2.3818359,4.159668-4.828125,8.3120117-3.8876953
		c9.7475586,2.4794922,19.8056641,5.6005859,29.8945312,9.2763672l1.9682617,0.7167969l-1.4321289-1.5283203
		c-7.3417969-7.8378906-14.159668-15.8642578-20.2558594-23.8447266c-2.503418-3.4804688-1.3935547-7.1289062,0.3178711-9.1962891
		c1.7124023-2.0673828,5.0849609-3.84375,8.9453125-2.046875c10.6538086,5.3017578,21.4135742,11.4882812,31.9804688,18.3886719
		l1.800293,1.1748047l-1.0966797-1.8486328c-6.4360352-10.8525391-12.1518555-21.8691406-16.9833984-32.7324219
		c-1.6113281-3.9228516,0.2583008-7.40625,2.8398438-9.1279297c2.1621094-1.5527344,5.6230469-2.3515625,8.8408203,0.0527344
		c9.340332,7.3642578,18.6074219,15.6201172,27.543457,24.5400391l1.5214844,1.5195312l-0.6953125-2.0351562
		c-4.0805664-11.9414062-7.4223633-23.8945312-9.9282227-35.5136719c-0.7832031-4.2148438,1.7744141-7.0429688,4.203125-8.1845703
		c2.4291992-1.1425781,6.237793-1.3125,8.965332,1.9570312c6.2363281,7.8818359,12.3330078,16.4697266,18.1210938,25.5224609
		l1.128418,1.7646484l-0.2094727-2.0839844c-1.0751953-10.6914062-1.6191406-21.2080078-1.6171875-31.2451172
		c0.1240234-4.2861328,3.2216797-6.5107422,5.8369141-7.1142578c2.6132812-0.6054688,6.3745117,0.0332031,8.3496094,3.8046875
		c5.2475586,10.6816406,10.0405273,22.1298828,14.246582,34.0283203l0.7163086,2.0263672l0.2514648-2.1347656
		c1.4755859-12.5302734,3.6225586-24.7519531,6.3818359-36.3271484c1.1083984-4.1074219,4.5966797-5.5605469,7.2714844-5.5605469
		h0.0522461c2.6850586,0.0195312,6.1933594,1.5097656,7.2412109,5.6367188
		c7.6977539,33.9794922,9.8466797,72.03125,6.5708008,116.3212891c-0.2226562,2.4363403-0.475708,4.9820557-0.756958,7.583374
		c-2.197876-2.7850342-5.5697021-4.5064087-8.9696045-3.9108276c-21.1008301,3.6966553-35.548584,15.3912354-43.3430176,35.0839844
		c-1.1071777,2.7973022-0.6778564,5.9503174,0.7355957,8.5925903
		C247.5398254,207.7855225,245.1239319,207.4194336,242.8161926,207.0512695z M285.2707825,386.6879883
		c-24.2939453,19.2988281-47.1118164,33.0097656-69.7441406,41.9121094
		c-2.7363281,0.9863281-4.9135742-0.4150391-5.9448242-1.9179688c-1.0317383-1.5029297-1.5639648-4.0351562,0.324707-6.2177734
		c5.5986328-6.140625,11.8129883-12.1835938,18.4702148-17.9599609l1.6240234-1.4091797l-2.0791016,0.5478516
		c-8.5244141,2.2470703-17.0180664,3.9775391-25.2304688,5.1416016c-2.8823242,0.3291016-4.6831055-1.5429688-5.3383789-3.2431641
		c-0.6552734-1.7011719-0.5859375-4.2880859,1.7563477-5.9736328c5.8071289-3.9521484,12.0932617-7.7705078,18.6835938-11.3476562
		l1.8413086-0.9990234l-2.09375,0.0595703c-7.4916992,0.2167969-14.8442383,0.0693359-21.8413086-0.4326172
		c-2.8955078-0.2919922-4.2519531-2.4980469-4.5336914-4.2978516c-0.2822266-1.8007812,0.331543-4.3154297,2.9775391-5.4677734
		c7.7016602-3.1220703,15.9160156-5.8886719,24.4145508-8.2236328l2.0732422-0.5703125l-2.1118164-0.4033203
		c-8.6611328-1.6552734-17.0693359-3.7617188-24.9770508-6.2568359c-2.7182617-0.9443359-3.6494141-3.4619141-3.3637695-5.5546875
		c0.1826172-1.7978516,1.3320312-3.9179688,3.9975586-4.4716797c8.1762695-1.4794922,16.7832031-2.5078125,25.581543-3.0566406
		l2.1455078-0.1337891l-1.984375-0.8271484c-8.1362305-3.3896484-15.9355469-7.1708984-23.1694336-11.2324219
		c-2.4956055-1.4970703-2.7841797-4.0703125-2.2724609-5.8183594c0.5117188-1.75,2.1274414-3.7275391,5.0224609-3.6796875
		c7.0058594,0.3837891,14.3188477,1.1669922,21.7358398,2.3271484l2.0693359,0.3232422l-1.7001953-1.2236328
		c-6.0883789-4.3808594-11.8422852-8.9619141-17.0913086-13.6054688c-2.1235352-1.9902344-1.8618164-4.5664062-0.9926758-6.1679688
		c0.8696289-1.6005859,2.8833008-3.2265625,5.6850586-2.5351562c8.015625,2.1953125,16.2226562,4.984375,24.3930664,8.2890625
		l1.9931641,0.8056641l-1.4331055-1.6025391c-5.8686523-6.5644531-11.269043-13.3417969-16.0507812-20.1425781
		c-1.5991211-2.4267578-0.7485352-4.8691406,0.4672852-6.2246094c1.2163086-1.3564453,3.5522461-2.4726562,6.1186523-1.1494141
		c21.3383789,11.6933594,42.2431641,28.1757812,63.9018555,50.3818359c1.1408691,1.2109375,2.3232422,2.4863281,3.520752,3.7988281
		c-2.404541-0.0740967-4.7651367,0.8922119-5.9919434,2.8901367c-7.833252,12.7581787-8.3994141,25.7358398-1.6982422,38.9331055
		c0.9233398,1.8184814,2.6914062,3.0356445,4.65625,3.548584
		C287.7839661,384.6018066,286.5039368,385.6728516,285.2707825,386.6879883z M557.8284302,240.840332l-2.1113281,0.4072266
		l2.074707,0.5664062c8.5029297,2.3193359,16.722168,5.0712891,24.4179688,8.1748047
		c2.6591797,1.1523438,3.277832,3.6650391,2.9995117,5.4658203s-1.6308594,4.0087891-4.5117188,4.3046875
		c-24.269043,1.7890625-50.7749023-0.6767578-81.0244446-7.5351562c-1.5541992-0.3808594-3.1748047-0.791748-4.824707-1.2225952
		c1.5483398-1.3139038,2.6136475-3.177002,2.6574707-5.2158813c0.3183594-14.7977295-5.8171387-26.2474976-18.4064941-34.3491821
		c-1.9711914-1.2686157-4.5170898-1.116394-6.6517334-0.0077515c0.5093994-1.6990356,1.0211182-3.3581543,1.5233154-4.940918
		c9.894043-29.4072266,21.5878906-53.3222656,35.7421875-73.0996094c1.1313477-1.4980469,2.6147766-2.0292969,3.9775696-2.0292969
		c0.7421875,0,1.4487305,0.1582031,2.0424805,0.4033203c1.6826172,0.6943359,3.5078125,2.5263672,3.1181641,5.40625
		c-1.3588867,8.1953125-3.2880859,16.6425781-5.7333984,25.109375l-0.5966797,2.0654297l1.4467773-1.5898438
		c5.9282227-6.5166016,12.1152344-12.5878906,18.3793945-18.0361328c2.2358398-1.8457031,4.7558594-1.2519531,6.2333984-0.1865234
		c1.4770508,1.0664062,2.8291016,3.2744141,1.7832031,5.9736328c-2.7207031,6.4697266-5.9204102,13.0917969-9.5092773,19.6835938
		l-1.0014648,1.8398438l1.7241211-1.1884766c6.1801758-4.2597656,12.4311523-8.1357422,18.5673828-11.5126953
		c2.5766602-1.3300781,4.9130859-0.2216797,6.1323242,1.1318359c1.21875,1.3535156,2.074707,3.7978516,0.4824219,6.2167969
		c-4.7661133,6.8076172-10.1552734,13.5966797-16.0180664,20.1777344l-1.4296875,1.6054688l1.9916992-0.8095703
		c8.1689453-3.3203125,16.3710938-6.1240234,24.3652344-8.3300781c2.6538086-0.6611328,4.6088867,0.7519531,5.5620117,2.3066406
		c1.1557617,1.7480469,1.4082031,4.4208984-0.6225586,6.4404297c-6.0571289,5.6875-12.7211914,11.2304688-19.8066406,16.4746094
		l-1.7285156,1.2792969l2.1157227-0.3847656c8.6679688-1.5791016,17.2700195-2.6464844,25.5537109-3.1708984
		c2.8823242-0.0947266,4.5400391,1.8896484,5.0664062,3.6357422c0.5263672,1.7431641,0.2602539,4.3183594-2.2104492,5.8300781
		c-6.0913086,3.4882812-12.6542969,6.8076172-19.5068359,9.8652344l-1.9130859,0.8535156l2.0922852,0.1025391
		c7.4907227,0.3671875,14.8100586,1.0830078,21.7426758,2.1259766c2.8544922,0.5058594,4.0385742,2.8066406,4.1850586,4.6230469
		s-0.6572266,4.2773438-3.3911133,5.2333984C574.8811646,237.0493164,566.4768677,239.1713867,557.8284302,240.840332z"/>
</g>
</svg>
