<?xml version="1.0" encoding="utf-8"?>
<!-- Generator: Adobe Illustrator 25.2.3, SVG Export Plug-In . SVG Version: 6.00 Build 0)  -->
<svg version="1.1" id="Artboards" xmlns="http://www.w3.org/2000/svg" xmlns:xlink="http://www.w3.org/1999/xlink" x="0px" y="0px"
	 viewBox="0 0 714 714" style="enable-background:new 0 0 714 714;" xml:space="preserve">
<style type="text/css">
	.st0{fill:none;stroke:#FF0000;stroke-miterlimit:10;}
</style>
<g id="Artboard_7">
	<path class="st0" d="M477.2,504.1c-20.7,0-40.2-5-57.9-14.7c-1.8-1-3.3-1.4-4.9-1.4c-1.3,0-2.8,0.3-4.7,0.9
		c-15,5.1-29,7.8-42.8,8.2c-1.3,0-2.7,0.1-4,0.1c-19.3,0-37.5-4-55.7-12.2c-0.2-0.1-0.4-0.1-0.4-0.1c-0.4,0-1.3,0.4-2.2,0.8
		c-0.5,0.2-1,0.5-1.5,0.7c-15.7,6.2-31.8,9.4-47.7,9.4c-13.9,0-28.1-2.4-42.2-7.2c-12.7-4.3-26-9.6-37.5-19
		c-18.4-15.2-30.4-32.6-35.5-51.8c-5.5-20.6-8.1-42.2-7.3-62.3c-0.2-26.2,4.6-49.4,9.4-68.6c3.7-15.1,7.6-29.8,14-43.8
		c5.8-12.8,13.3-27.5,24.8-39.4c8.5-8.7,19-19.6,34.9-22.2c3.2-0.5,6.4-0.8,9.5-0.8c9.3,0,18.8,2.2,28.9,6.8
		c12.5,5.7,24.8,13.5,37.5,23.9c2.2,1.8,4.3,3.8,6.2,5.8c0,0,1.5,1.5,1.6,1.6c0.1-0.1,0.2-0.2,0.3-0.3
		c10.2-12.1,20.8-21.5,32.3-28.7c10.2-6.3,20.5-9.5,30.7-9.5c10.2,0,20.6,3.2,30.8,9.5c14,8.6,26.2,20.3,39.4,37.7
		c6.5-6.9,14.5-13.1,25.5-20c9.1-5.7,20-12.2,32.4-15.7c5.9-1.7,11.7-2.6,17.2-2.6c12.7,0,24.3,4.6,34.4,13.6
		c20.2,18,34,41.4,43.3,73.5c4.6,15.9,7.9,29,10.3,41.5c4.7,24.6,5.7,50.1,2.9,76c-1.3,11.7-3.3,22.8-6.1,33
		c-3.4,12.6-9.9,24.5-19.8,36.4c-18.3,21.8-43.1,34.8-75.7,39.6C490.8,503.6,483.9,504.1,477.2,504.1z"/>
</g>
</svg>
