<?xml version="1.0" encoding="utf-8"?>
<!-- Generator: Adobe Illustrator 24.2.1, SVG Export Plug-In . SVG Version: 6.00 Build 0)  -->
<svg version="1.1" id="Layer_1" xmlns="http://www.w3.org/2000/svg" xmlns:xlink="http://www.w3.org/1999/xlink" x="0px" y="0px"
	 viewBox="0 0 714 714" style="enable-background:new 0 0 714 714;" xml:space="preserve">
<path d="M676.0776367,568.6762695c-2.7209473-2.7211914-5.4597168-5.2988281-8.1984863-7.7333984
	c-5.0927734-4.5200195-10.2303467-8.5476074-15.3857422-12.1276855
	c-7.6437988-5.3166504-15.3410645-9.6486816-23.0651855-13.1481934c-1.6828613-0.7697754-3.3745117-1.4946289-5.0571289-2.1748047
	c-6.9543457-2.8374023-13.8911133-5.0302734-20.8007813-6.7128906c-7.0349121-1.7185059-14.0251465-2.9089355-20.9169922-3.7324219
	c-5.8535156-0.6982422-11.6534424-1.145752-17.390625-1.4052734c-4.2514648-0.2058105-8.4761963-0.3129883-12.664917-0.3669434
	c-2.0137939-0.0266113-4.0008545-0.0446777-5.987793-0.0446777c0-1.9870605-0.0179443-3.973999-0.0447998-5.987793
	c-0.0089111-0.7966309-0.0268555-1.5842285-0.0358887-2.3807373c-0.1699219-9.0668945-0.6174316-18.2857666-1.7451172-27.6837158
	c-0.4833984-4.02771-1.0830078-8.0822754-1.8529053-12.1635742c-1.3424072-7.2139893-3.1862793-14.4997559-5.701416-21.8121338
	c-1.4498291-4.260376-3.1236572-8.5297852-5.0570068-12.7901611c-2.5239258-5.5671387-5.4864502-11.1254883-8.9414063-16.6567383
	c-3.3474121-5.3881836-7.1513672-10.7495117-11.4743652-16.0571289c-3.7861328-4.6809082-7.9837646-9.3261719-12.5932617-13.935791
	c-2.8909912-2.8908691-5.7998047-5.6207275-8.7086182-8.1895752c-5.119751-4.5109863-10.2750244-8.520874-15.4486084-12.0828857
	c-3.9381104-2.7032471-7.8763428-5.1555176-11.8325195-7.3574219c-5.4685059-3.0522461-10.9462891-5.6477051-16.4147949-7.8405762
	c-5.182373-2.0852051-10.3557129-3.8039551-15.5111084-5.2359619c-1.7991943-0.4921875-3.5892334-0.9576416-5.3883057-1.3782959
	c-13.0495605-3.1147461-25.9023438-4.4393311-38.4509277-4.9943848c-3.4907227-0.1611328-6.9544678-0.2595215-10.3913574-0.3132324
	c-2.4523926-0.0358887-4.895874-0.0627441-7.3303223-0.0627441c0-2.4344482-0.0179443-4.8688965-0.0537109-7.3212891
	c-0.0090332-0.6713867-0.0268555-1.3337402-0.0358887-2.0048828c-0.2773438-12.9155273-1.1276855-26.1889648-3.7412109-39.7041016
	c-0.7875977-4.152832-1.7453613-8.3328857-2.9089355-12.5217285c-0.8413086-3.0609131-1.7988281-6.1309814-2.8820801-9.2009277
	c-2.6313477-7.5720215-5.9609375-15.1621094-10.1855469-22.7160645c-1.2263184-2.2109375-2.5419922-4.4216309-3.9291992-6.614502
	c-3.3741455-5.3612061-7.1960449-10.6867676-11.5371094-15.9763184c-3.6784668-4.5021973-7.7331543-8.9683838-12.1724854-13.4077148
	c-3.0611572-3.0611572-6.1400146-5.9431152-9.2279053-8.637207c-5.1286621-4.4841309-10.3017578-8.4760742-15.5109863-12.0026855
	c-7.2587891-4.9674072-14.5712891-9.0397949-21.9106445-12.3692627c-2.1479492-0.9666748-4.2962646-1.8797607-6.4443359-2.7210693
	c-7.0170898-2.7924805-14.0252686-4.9138184-20.9796143-6.5336914c-6.4980469-1.5216064-12.9603271-2.5957031-19.34198-3.3564453
	c-6.4890137-0.7785645-12.9064941-1.2351074-19.2523193-1.4946289c-3.624939-0.1523438-7.2318726-0.2329102-10.8120728-0.286377
	c-2.013916-0.0270996-4.0007935-0.0449219-5.987854-0.0449219c0-1.9870605-0.0179443-3.973877-0.0447998-5.987793
	c-0.0178223-1.4140625-0.0447998-2.8371582-0.0806274-4.2692871c-0.1877441-8.458252-0.6532593-17.0505371-1.6914063-25.7861328
	c-0.5550537-4.5648193-1.2531128-9.1652832-2.1750488-13.7927246c-1.4052734-7.1691895-3.3115845-14.392334-5.8804321-21.6330566
	c-1.3336182-3.7861328-2.8461914-7.5721436-4.5646973-11.3491211c-2.7029419-5.9609375-5.9073486-11.9219971-9.6843262-17.847168
	c-3.3832397-5.3344727-7.2319946-10.6508789-11.5997925-15.9138184c-3.5532837-4.322998-7.4645996-8.6281738-11.7250366-12.8885498
	c-4.949585-4.949585-12.9512329-4.949585-17.9008179,0c-4.9405518,4.9405518-4.949585,12.9512939,0,17.9007568
	c4.3499146,4.3499756,8.2075806,8.6730957,11.6445313,12.9692383l-70.2697144,70.2696533
	c-4.3051147-3.4279785-8.6282349-7.2856445-12.9780884-11.635498c-4.949585-4.949585-12.9512329-4.949585-17.9008179,0
	c-4.9405518,4.9405518-4.949646,12.9511719,0,17.9007568c4.2692261,4.2692871,8.5656128,8.1716309,12.8886108,11.7250977
	c5.2717896,4.3588867,10.5704956,8.2073975,15.9137573,11.5998535c5.9251709,3.7768555,11.8773193,6.972168,17.847168,9.6842041
	c3.7770386,1.7183838,7.5630493,3.230957,11.3491821,4.5646973c7.2498169,2.5598145,14.4727173,4.4661865,21.6331787,5.8803711
	c4.6272583,0.9219971,9.2277832,1.6199951,13.7926025,2.1749268c8.7354736,1.0383301,17.3369141,1.494873,25.7859497,1.6916504
	c1.4321899,0.0357666,2.8553467,0.0627441,4.2693481,0.0805664c2.013855,0.0268555,4.0009766,0.0446777,5.987793,0.0447998
	c0.0002441,1.9869385,0.0179443,3.973999,0.0449219,5.987915c0.0536499,3.5800781,0.1430054,7.1781006,0.2952881,10.8031006
	c0.2596436,6.3457031,0.7071533,12.7722168,1.4858398,19.2611084c0.7606201,6.3818359,1.843689,12.8352051,3.3653564,19.3330078
	c1.6110229,6.9633789,3.7410889,13.9626465,6.5247803,20.9885254c0.8413696,2.1481934,1.7543335,4.2963867,2.7209473,6.4445801
	c3.3295288,7.3392334,7.4019165,14.6518555,12.3694458,21.9104004c3.5354614,5.2004395,7.5272827,10.3735352,12.0114746,15.5023193
	c2.6851196,3.0968018,5.5671387,6.1756592,8.6282349,9.2368164c4.4393311,4.4393311,8.9145508,8.4849854,13.4077759,12.1724854
	c5.298584,4.3319092,10.6329956,8.1628418,15.9852905,11.5280762c2.1928101,1.3873291,4.4035645,2.7030029,6.6143799,3.9291992
	c7.5540771,4.2246094,15.1351318,7.5632324,22.7071533,10.1945801c3.0791016,1.0740967,6.1491699,2.0317383,9.210083,2.8730469
	c4.1887207,1.1635742,8.3687744,2.1213379,12.5214844,2.9089355c13.5152588,2.6135254,26.7796631,3.4727783,39.7041016,3.7412109
	c0.6712646,0.0090332,1.3336182,0.0268555,2.0048828,0.0358887c2.4523926,0.0358887,4.887085,0.0535889,7.3214111,0.0537109
	c0.0001221,2.4343262,0.0268555,4.8779297,0.0627441,7.3303223c0.0535889,3.4370117,0.1520996,6.9007568,0.3132324,10.3913574
	c0.5460205,12.5576172,1.8795166,25.4013672,4.9943848,38.4510498c0.4206543,1.7989502,0.8859863,3.5891113,1.378418,5.3880615
	c1.4228516,5.1645508,3.1505127,10.3288574,5.2358398,15.5111084c2.1928711,5.4686279,4.7884521,10.9464111,7.8405762,16.4150391
	c2.2019043,3.9561768,4.6540527,7.8942871,7.3662109,11.8236084c3.5622559,5.1911621,7.5720215,10.3465576,12.0742188,15.4572754
	c2.5686035,2.9267578,5.2895508,5.8267822,8.1804199,8.7177734c4.6096191,4.609375,9.2637939,8.7982178,13.935791,12.5932617
	c5.3255615,4.322998,10.6779785,8.1357422,16.0571289,11.4743652c5.5314941,3.454834,11.0895996,6.4174805,16.6567383,8.9414063
	c4.260498,1.9333496,8.5297852,3.6071777,12.7901611,5.0571289c7.3123779,2.5148926,14.5981445,4.3588867,21.8121338,5.7011719
	c4.0814209,0.7700195,8.1359863,1.3696289,12.1636963,1.8527832c9.3978271,1.1279297,18.6258545,1.5664063,27.6925049,1.7365723
	c0.7875977,0.0178223,1.5841064,0.0268555,2.3718262,0.0446777c2.013916,0.0268555,4.0009766,0.0446777,5.987793,0.0446777
	c0,1.9868164,0.0179443,3.9741211,0.0447998,5.987793c0.0537109,4.1889648,0.1700439,8.404541,0.3758545,12.6560059
	c0.2595215,5.7373047,0.6981201,11.5461426,1.3963623,17.3996582c0.8233643,6.8918457,2.0137939,13.8820801,3.7412109,20.9082031
	c1.6827393,6.909668,3.8665771,13.8549805,6.7039795,20.8095703c0.6801758,1.6826172,1.4050293,3.3742676,2.1748047,5.0571289
	c3.508667,7.7150879,7.831665,15.4213867,13.1571045,23.0561523c3.5712891,5.1643066,7.6077881,10.2929688,12.1278076,15.3857422
	c2.4255371,2.7478027,5.003418,5.4865723,7.7242432,8.2075195c4.9406738,4.9406738,12.9603271,4.9404297,17.9007568,0
	c4.949707-4.949707,4.9406738-12.9602051,0-17.9008789c-2.7565918-2.7565918-5.3074951-5.5043945-7.6884766-8.2431641
	l71.0574951-71.0576172c2.7388916,2.3808594,5.4776611,4.940918,8.234375,7.6975098
	c4.9405518,4.9406738,12.9603271,4.9406738,17.9007568,0C681.0273438,581.6274414,681.0183105,573.6166992,676.0776367,568.6762695z
	 M116.2473755,162.578125c-1.2263184-0.2954102-2.4345093-0.6086426-3.6518555-0.9488525
	c-8.8340454-2.4434814-17.56073-5.8892822-26.3320313-10.7762451c-0.3671265-0.2059326-0.7338867-0.4116211-1.1008911-0.635498
	l65.0515137-65.0515137c0.223877,0.3669434,0.4296265,0.7336426,0.635437,1.1008301
	c4.8959961,8.7624512,8.3418579,17.4890137,10.7852783,26.322998c0.340271,1.2175293,0.6533813,2.4255371,0.9487915,3.6518555
	L116.2473755,162.578125z M160.4802246,167.3933105c-6.9634399-0.1072998-13.8014526-0.3937988-20.5321045-1.0024414
	l26.4484253-26.4484863c0.5996094,6.7397461,0.8860474,13.5777588,1.0023193,20.5322266
	c0.0358276,2.3093262,0.053772,4.6364746,0.0626831,6.9724121
	C165.1166992,167.4470215,162.7894897,167.4291992,160.4802246,167.3933105z M192.7733765,199.6865234
	c-0.0358276-2.3093262-0.0536499-4.6364746-0.0536499-6.9813232c2.3359375,0.0089111,4.6630249,0.0267334,6.97229,0.0626221
	c9.0666504,0.1520996,17.9365234,0.5727539,26.6364136,1.6469727l-31.9080811,31.9080811
	C193.3461914,217.6230469,192.9165039,208.762085,192.7733765,199.6865234z M212.4732056,279.2286377
	c-1.1187744-1.7808838-2.1748657-3.5533447-3.1594849-5.3254395c-4.5825195-8.2164307-7.8852539-16.3881836-10.2929688-24.6673584
	l50.2206421-50.2207031c8.2792358,2.4077148,16.4509888,5.7104492,24.6583862,10.302002
	c1.7723389,0.9844971,3.5445557,2.0406494,5.3255615,3.1594238L212.4732056,279.2286377z M246.2520752,316.4089355
	c-4.4752197-3.5266113-8.9772949-7.5274658-13.5150757-12.0653076c-3.1057739-3.1057129-5.9609985-6.1937256-8.5834351-9.2816162
	l70.9140625-70.9140625c3.0788574,2.6313477,6.1668701,5.4865723,9.2727051,8.5924072
	c4.5377197,4.5378418,8.5385742,9.0397949,12.0651855,13.5150146L246.2520752,316.4089355z M293.9399414,339.6796875
	c-7.3930664-1.7541504-14.6967773-4.1707764-21.9822998-7.4824219c-3.0877686-1.4052734-6.1669922-2.9626465-9.2637939-4.7167969
	l64.8011475-64.8011475c1.7452393,3.105835,3.3026123,6.1849365,4.7078857,9.2728271
	c3.3027344,7.2944336,5.7193604,14.5979004,7.4736328,21.9909668L293.9399414,339.6796875z M338.6650391,344.3430176
	c-7.088623-0.0895996-14.0700684-0.3581543-20.9350586-0.9399414l25.6697998-25.6696777
	c0.5906982,6.8560791,0.8503418,13.8464355,0.9399414,20.9350586c0.0178223,1.8974609,0.0445557,3.8039551,0.0446777,5.7192383
	C342.4689941,344.3876953,340.5625,344.3608398,338.6650391,344.3430176z M371.4414063,404.0959473
	c-0.0625-0.456543-0.1162109-0.9040527-0.1700439-1.3515625c-1.0740967-8.9501953-1.4766846-18.0709229-1.6021729-27.3972168
	c-0.0178223-1.8974609-0.0445557-3.8039551-0.0446777-5.7192383c1.9154053,0,3.8217773,0.0268555,5.7193604,0.0446777
	c9.3262939,0.1254883,18.4558105,0.519165,27.3970947,1.6020508c0.4475098,0.0537109,0.8951416,0.1074219,1.3515625,0.170166
	L371.4414063,404.0959473z M389.7629395,456.7333984c-3.1147461-4.9228516-5.7373047-9.8007813-7.9569092-14.6877441
	c-2.2913818-5.0301514-4.1439209-10.0690918-5.6566162-15.144043l50.7487793-50.7487793
	c5.0749512,1.5126953,10.1138916,3.3652344,15.1530762,5.647583c4.8869629,2.2197266,9.7738037,4.8331299,14.6877441,7.9569092
	L389.7629395,456.7333984z M423.7119141,493.7431641c-4.6453857-3.6247559-9.3353271-7.7598877-14.0522461-12.4768066
	c-2.935791-2.935791-5.6386719-5.8535156-8.1358643-8.7624512l70.9768066-70.9768066
	c2.9088135,2.4973145,5.8265381,5.2001953,8.7623291,8.1359863c4.7169189,4.7167969,8.861084,9.3979492,12.4858398,14.0432129
	L423.7119141,493.7431641z M471.6413574,516.7905273c-1.7453613-0.402832-3.4818115-0.8500977-5.2092285-1.324707
	c-8.7983398-2.4433594-17.4711914-5.8535156-26.2067871-10.7045898l64.5324707-64.5324707
	c4.8601074,8.7265625,8.2702637,17.3995361,10.713623,26.1977539c0.4744873,1.7275391,0.9219971,3.4638672,1.3248291,5.2092285
	L471.6413574,516.7905273z M514.3168945,521.2299805c-6.3459473-0.0986328-12.6020508-0.3400879-18.7510986-0.8503418
	l24.819458-24.819458c0.5013428,6.1578369,0.7518311,12.4052734,0.8503418,18.7510986
	c0.0357666,2.3093262,0.0535889,4.6364746,0.0626221,6.9724121
	C518.9532471,521.2836914,516.6260986,521.265625,514.3168945,521.2299805z M548.4804688,581.8691406
	c-1.2440186-9.2458496-1.7183838-18.6706543-1.8704834-28.3461914c-0.0357666-2.309082-0.0537109-4.6362305-0.0537109-6.9812012
	c2.3359375,0.0090332,4.663208,0.0268555,6.97229,0.0627441c9.6665039,0.1611328,19.0913086,0.6352539,28.3459473,1.8706055
	L548.4804688,581.8691406z M567.0617676,634.246582c-1.4052734-2.1748047-2.703125-4.3317871-3.911377-6.5068359
	c-4.314209-7.7329102-7.4915771-15.4213867-9.8544922-23.1723633l51.2769775-51.2770996
	c7.7510986,2.3630371,15.4394531,5.5402832,23.1635742,9.8635254c2.1749268,1.208252,4.3320313,2.5061035,6.506958,3.9111328
	L567.0617676,634.246582z"/>
</svg>
