<svg width="133" height="297" viewBox="0 0 133 297" fill="none" xmlns="http://www.w3.org/2000/svg">
<path d="M53.5 66.5C63.9701 66.5 72.5 75.4304 72.5 86.5C72.5 97.5696 63.9701 106.5 53.5 106.5C43.0299 106.5 34.5 97.5696 34.5 86.5C34.5 75.4304 43.0299 66.5 53.5 66.5Z" fill="white" stroke="black"/>
<path d="M26 226.5C24.2647 226.689 13.0263 253.151 11.2631 257.538C9.5 261.925 9.72729 261.517 9 263.084C8.50452 264.152 7.93277 264.893 7.5 266C6.8661 267.622 5.90287 268.495 5.45006 270.191C4.97875 271.956 4.16921 273.562 3.48387 275.217C2.18544 278.352 1.32463 281.487 1.26122 284.925C1.23057 286.587 0.756832 287.627 1.16505 289.253C1.37797 290.101 1.68769 291.358 2.22294 292.02C3.087 293.089 4.21145 295 5.68514 295C7.78273 295 9.48338 296.395 11.2631 295C13 295 15.5 294 17.5 291C19.4342 289.548 20.6794 285.635 21.5536 283.163C21.8965 282.193 22.3285 281.288 22.6222 280.313C22.7841 279.776 23.1254 279.399 23.2847 278.835C23.4139 278.378 23.4109 277.915 23.5305 277.452C24.0331 275.505 24.0034 275.221 24.5 272.5C24.9966 269.779 25.0839 270.24 25.4966 267.5C25.6467 266.504 26.674 263.317 27.2277 262.5C28.0563 261.277 29.5 257.538 29.5 257.538C29.5 257.538 31.6185 251.529 33 250C34.3805 248.472 39.0035 241 39.0035 241" stroke="black" stroke-linecap="round" stroke-linejoin="round"/>
<path d="M25.3726 226.821C25.6764 228.416 26.4102 229.833 27.336 231.179C27.7569 231.792 28.3174 232.253 28.7257 232.889C29.1192 233.501 29.7705 234.006 30.2929 234.509C30.6974 234.899 30.9922 235.159 31.3573 235.633C31.6959 236.072 31.9888 236.465 32.3745 236.851C33.0456 237.522 33.7161 238.099 34.4739 238.678C35.1107 239.165 35.99 239.629 36.7093 239.973C37.1148 240.167 37.5591 240.532 37.9926 240.647C38.3967 240.755 38.8213 240.716 39.2109 240.872" stroke="black" stroke-linecap="round" stroke-linejoin="round"/>
<path d="M86 35C85.965 34.8426 86.8285 36.2743 86.7096 36.2063C86 35 86.2254 35.3255 86 35Z" fill="black"/>
<path d="M83.0587 22.191C83.0587 20.8817 83.0587 19.5724 83.0587 18.2632C83.0587 17.0753 82.8204 15.5643 83.0933 14.4046C83.3053 13.5035 83.9245 12.5611 83.993 11.6361C84.0374 11.0371 84.5201 10.1837 84.7371 9.6117C84.969 9.00017 85.3416 8.28969 85.706 7.74298C86.5225 6.51821 87.4018 5.46883 88.4745 4.47272C89.8496 3.19584 91.9301 2.80329 93.6481 2.29254C94.5587 2.02181 95.439 1.50152 96.4166 1.4793C97.4563 1.45567 98.414 1.54353 99.41 1.23706C100.648 0.855999 102.658 1.16069 103.857 1.4447C104.624 1.6265 105.045 1.89784 105.708 2.25794C106.636 2.76133 107.115 3.33849 107.906 4.02284C108.75 4.75352 109.788 5.9426 110.311 6.92974C110.901 8.045 111.799 9.07038 112.301 10.2C112.682 11.0575 112.491 12.3485 112.491 13.2799C112.491 15.1767 112.81 17.4795 112.058 19.2321C111.658 20.1654 111.9 21.4646 111.591 22.4678C111.435 22.9772 111.089 23.5341 111.089 24.0597C111.089 24.5522 111.138 25.0602 111.012 25.5391C110.469 27.6021 110.08 29.651 109.697 31.7595C109.509 32.793 109.143 33.6369 109.143 35.1941C109.143 35.1941 108.688 36.4356 108.5 37C108.342 37.4753 108.25 38.1958 108.053 38.6288C107.033 40.8718 106.549 43.7056 104.705 45.5499C103.921 46.3337 103.134 47.0698 102.127 47.436C101.66 47.6058 101.407 47.9546 100.881 48.0502C100.328 48.1507 99.9612 48.5731 99.3408 48.6558C98.3788 48.7841 97.4463 48.8202 96.4512 48.8202C95.4178 48.8202 94.27 47.8849 93.5702 47.1851C92.948 46.5629 91.663 45.9315 91.4679 45.0049C91.3678 44.5295 90.8511 44.1973 90.5422 43.837C90.0947 43.3148 90.1334 43.1001 90 42.5C89.9625 42.3312 89.7123 41.9065 89.6338 41.6914C89.3656 40.956 89.4883 41.215 89.3656 40.956C89.1329 40.4646 89.3656 40.5 88.5 39.5C88.2756 39.2407 88.5 39 88 38C87.5 37.5 86.0892 35.4014 86 35M86 35C85.965 34.8426 86.8285 36.2743 86.7096 36.2063C86 35 86.2254 35.3255 86 35ZM86 35C85.665 34.5161 85.5503 34.2867 85.5503 33.6369C85.5503 33.2458 85.3675 32.5976 85.0831 32.3132" stroke="#FF9900" stroke-linecap="round" stroke-linejoin="round"/>
<path d="M82.7472 22.9696C81.2614 23.0067 81.4994 24.5616 80.9564 25.5391C80.65 26.0905 80.766 27.9505 80.9131 28.5757C81.2871 30.1654 82.598 32.4689 84.4602 32.4689" stroke="#FF9900" stroke-linecap="round" stroke-linejoin="round"/>
<path d="M82.903 22.5024C84.0021 22.5292 84.7239 22.9794 84.9361 24.1462C85.061 24.8333 85.0805 25.6504 85.2562 26.3091C85.3948 26.8289 85.7321 27.3305 85.8531 27.875C85.9629 28.3691 85.9337 28.7293 86.2597 29.1641C86.6027 29.6214 86.7961 28.8156 86.7961 28.5757C86.7961 27.8409 86.7407 26.9043 87.073 26.2398C87.8933 24.5992 88.653 23.0208 88.8292 21.1701C88.9862 19.5215 88.2837 15.9935 90.1875 15.2179C91.1125 14.841 91.9554 14.5952 92.956 14.4133C93.903 14.2411 94.9581 13.9374 95.9234 13.9374C97.224 13.9374 98.5246 13.9374 99.8253 13.9374C101.589 13.9374 103.561 13.6498 105.293 13.972C106.648 14.2242 107.765 15.0462 109.065 15.4255C110.21 15.7596 110.627 16.7122 110.787 17.7527C110.923 18.636 110.87 19.8488 111.332 20.5991" stroke="#FF9900" stroke-linecap="round" stroke-linejoin="round"/>
<path d="M85 34C85 35.7382 85 37.4926 85 39.2572C85 40.1111 85 40.965 85 41.8189C85 42.172 85 42.4598 85 42.8066C85 43.2044 85 43.6022 85 44" stroke="#FF9900" stroke-linecap="round" stroke-linejoin="round"/>
<path d="M85 34C85 35.7382 85 37.4926 85 39.2572C85 40.1111 85 40.965 85 41.8189C85 42.172 85 42.4598 85 42.8066C85 43.2044 85 43.6022 85 44" stroke="#FF9900" stroke-linecap="round" stroke-linejoin="round"/>
<path d="M54.381 58.3992C54.5638 57.4628 55.1097 56.7864 55.388 55.8819C55.7036 54.8561 56.7837 53.7244 57.6256 53.0696C58.4595 52.421 59.3403 51.7901 60.1379 51.0811C60.477 50.7796 60.9342 50.6911 61.2872 50.3946C61.6352 50.1022 62.0462 49.951 62.4365 49.7233C63.3936 49.165 64.5354 49.0705 65.5082 48.5841C66.1041 48.2862 66.9102 47.9756 67.6085 47.8722C68.4369 47.7494 69.2072 47.3818 70.0343 47.2314C71.6323 46.9408 73.2902 46.9612 74.7842 46.2244C75.8814 45.6834 76.9533 45.3564 78.1203 45.0344C79.0653 44.7737 79.9967 44.4133 80.9733 44.2614C82.2655 44.0604 83.5566 43.9359 84.8638 43.9359" stroke="#00ADF8" stroke-linecap="round" stroke-linejoin="round"/>
<path d="M54.2511 59.0452C53.7258 60.1088 53.2684 61.0804 53.1841 62.2466C53.0925 63.5147 52.841 64.6823 52.749 65.9548" stroke="#00ADF8" stroke-linecap="round" stroke-linejoin="round"/>
<path d="M39 101C38.171 101.366 38.3143 102.147 38.3143 102.889C38.3143 103.24 38.0256 103.557 37.9651 103.923C37.8885 104.385 37.6271 104.735 37.4508 105.157C36.6223 107.138 35.4845 109 34.4286 110.884C33.8202 111.97 32.8418 112.879 32.2571 113.966C31.5848 115.217 30.9459 116.474 30.1937 117.698C29.6813 118.532 29.0591 119.575 28.7714 120.497C28.6058 121.027 28.2169 121.891 27.7746 122.256C27.4269 122.543 26.2326 124.676 26 125" stroke="#FF9900" stroke-linecap="round" stroke-linejoin="round"/>
<path d="M26.1189 125C25.5429 125.121 24.3775 125.343 23.8991 125.708C23.5765 125.955 23.1976 126.3 22.838 126.481C22.3456 126.729 21.6018 127.346 21.0694 127.42C19.9433 127.576 18.6842 129.223 17.9104 129.953C17.5281 130.313 17.1151 130.66 16.6786 130.953C16.2774 131.222 16.1298 131.67 15.8492 132.057C15.3459 132.75 15.0564 133.386 15.0564 134.259C15.0564 134.688 14.8329 135.723 15.2759 135.946C15.9847 136.302 17.6466 134.397 18.2459 135C18.7174 135.474 18.1301 137.649 18.2459 138.289C18.3324 138.767 18.7621 139.065 18.874 139.516C19.2217 140.914 20.4212 141 21.6183 141C22.741 141 23.6523 140.856 24.4724 140.031C24.8462 139.655 25.0574 139.222 25.4298 138.847C25.9278 138.346 25.9352 137.807 26.1189 137.16C26.4062 136.149 26.2293 134.858 26.802 133.909C26.9296 133.698 26.9621 133.406 27.0215 133.167C27.089 132.896 27.3467 132.764 27.5094 132.554C27.7579 132.232 28.0251 131.847 28.4485 131.75C29.0959 131.601 29.5205 131.514 30.1012 131.112C30.6856 130.708 30.9483 130.122 31.4124 129.628C32.2515 128.734 32.7407 127.418 33.4737 126.426C33.8938 125.857 34.304 125.052 34.6507 124.432C35.0891 123.648 35.5268 122.914 35.9374 122.12C36.3277 121.365 36.8041 120.568 37.2852 119.869C37.9341 118.926 38.457 117.901 39.1452 116.992C40.1566 115.656 41.1325 114.301 42.1517 112.968C42.7945 112.128 43.5267 111.198 44.0118 110.257C44.4436 109.419 45.1213 108.765 45.6279 107.981C46.0844 107.275 46.4057 106.598 47 106" stroke="#FF9900" stroke-linecap="round" stroke-linejoin="round"/>
<path d="M106.528 42.6952C108.131 43.3596 109.647 44.3019 110.773 45.6336C111.525 46.5223 112.285 47.4075 113.122 48.2139C114.066 49.1245 115.239 50.0413 116.053 51.0528C117.133 52.3933 118.385 53.4979 119.297 54.9796C120.099 56.2822 121.062 57.4046 122.043 58.5814C122.432 59.0478 122.891 59.8395 123.124 60.3922C123.428 61.1128 123.844 61.7275 124.252 62.3954C124.998 63.6166 125.784 64.6442 126.222 66.0303C126.594 67.2095 127.003 68.3424 127.303 69.5591C127.6 70.7635 128.094 71.8951 128.404 73.0746C128.565 73.6842 128.876 74.2148 129.001 74.839C129.139 75.5305 129.113 76.1193 129.386 76.7825C129.572 77.2335 129.56 77.8902 129.572 78.3412C129.597 79.3153 130.036 80.2556 130.169 81.22C130.402 82.9147 130.732 84.5835 130.978 86.2744C131.187 87.713 131.5 88.0386 131.5 89.5C131.5 90.735 131.601 91.5 131.601 93C131.697 93.445 132.015 96.5 131.601 96.5" stroke="#00ADF8" stroke-linecap="round" stroke-linejoin="round"/>
<path d="M131.84 96.6617C131.84 98.1962 131.84 99.7306 131.84 101.265C131.84 102.607 131.362 103.843 131.362 105.185C131.362 106.232 131.414 107.294 131.124 108.309C130.824 109.36 130.903 110.708 130.885 111.798C130.867 112.89 130.505 113.948 130.235 114.989C129.942 116.12 128.957 118.213 127.714 118.604C127.364 118.714 127.222 118.869 126.832 118.869C126.397 118.869 125.961 118.869 125.525 118.869C124.974 118.869 124.418 118.89 123.867 118.869C123.289 118.848 122.547 118.705 121.983 118.571C121.592 118.478 121.236 118.153 120.849 118.153C120.393 118.153 119.996 118.123 119.549 118.033C117.475 117.619 115.694 116.443 113.732 115.699C112.671 115.296 111.468 114.784 110.349 114.598C109.484 114.453 108.558 114.667 107.842 114.093" stroke="#FF9900" stroke-linecap="round" stroke-linejoin="round"/>
<path d="M76.6796 100.602C78.0946 100.602 79.5097 100.602 80.9247 100.602C82.012 100.602 83.9676 100.503 84.679 101.53C85.1265 102.177 85.4587 102.757 85.7536 103.494C86.0332 104.193 86.6343 104.612 86.8945 105.318C87.5258 107.031 89.8856 107.655 91.4315 108.031C92.1075 108.195 92.7137 108.461 93.3551 108.721C93.8181 108.908 94.297 109.175 94.8011 109.198C95.1909 109.216 95.8024 109.364 96.1343 109.563C97.4211 110.335 99.1621 110.141 100.479 110.843C100.829 111.03 101.151 110.918 101.514 111.016C101.902 111.121 102.198 111.446 102.588 111.56C103.001 111.679 103.344 111.882 103.729 112.064C104.155 112.265 104.626 112.232 105.043 112.482C105.392 112.691 105.809 112.725 106.17 112.906C106.539 113.09 106.793 113.391 107.178 113.556C107.853 113.845 108.434 114.17 109.036 114.571" stroke="#FF9900" stroke-linecap="round" stroke-linejoin="round"/>
<path d="M76.4408 100.482C75.29 99.9933 75.2841 98.7176 75.9632 97.796C76.2042 97.4689 78.2371 96.4284 77.8735 96.0648C77.64 95.8313 77.1099 95.9454 76.799 95.9454C76.2554 95.9454 75.9922 95.7813 75.4922 95.5938C74.592 95.2562 73.3365 94.8746 73.3365 93.7366C73.3365 92.9773 73.1498 91.9821 73.363 91.2624C73.5659 90.5777 74.0194 90.0159 74.3381 89.3786C74.4988 89.0571 74.4577 88.6785 74.6565 88.3638C74.8254 88.0963 75.0067 87.8219 75.1805 87.5612C75.7601 86.6918 76.9523 86.6654 77.8138 86.3341C78.4363 86.0946 79.4217 86.155 80.0757 86.155C80.9004 86.155 81.7166 86.1398 82.5299 86.2876C83.3348 86.434 83.9797 87.0608 84.752 87.2959C85.6622 87.5729 86.5217 88.0996 87.4251 88.4235C88.2176 88.7076 88.9882 89.0314 89.5742 89.6174C90.2395 90.2827 90.7915 90.9725 91.3652 91.7135C91.8476 92.3367 92.6211 92.9747 92.8576 93.7366C93.0314 94.2966 93.5559 95.0268 93.899 95.5209C94.7643 96.7669 95.4009 98.1556 96.3532 99.3548C96.7108 99.805 97.834 99.9978 98.3829 100.098C98.7582 100.166 99.1439 100.151 99.5238 100.217C100.026 100.304 100.547 100.554 101.036 100.595C102.837 100.745 104.605 101.199 106.409 101.199C109.396 101.199 112.371 101.318 115.364 101.318" stroke="#FF9900" stroke-linecap="round" stroke-linejoin="round"/>
<path d="M108 115C108 119.335 107.972 123.662 107.926 128C107.914 129.162 107.553 130.293 107.486 131.462C107.451 132.071 107.294 132.573 107.243 133.171C107.188 133.814 107.169 134.474 107.103 135.112C107.052 135.611 106.937 136.195 106.848 136.689C106.723 137.382 106.624 138.065 106.477 138.751C106.334 139.425 106 140.289 106 141" stroke="#00ADF8" stroke-linecap="round" stroke-linejoin="round"/>
<path d="M84.0025 188.5C85.0326 186.829 82.6319 189.889 84.0025 188.5ZM84.0025 188.5L84.8299 187.198L86.7448 184.682L88.2932 181.015L91.9575 174.305L93.8251 170.566L94.6289 168.41L96.0001 165.929L97.8677 162.059C98.8562 160.633 99.4039 158.68 100.114 157.11C100.804 155.582 101.207 153.979 102.04 152.485C102.293 152.031 102.469 151.655 102.809 151.263C103.319 150.671 103.295 149.942 103.707 149.333C104.358 148.371 104.691 146.795 105.043 145.655C105.371 144.589 106 143.064 106 142" stroke="#FF0000" stroke-linecap="round" stroke-linejoin="round"/>
<g filter="url(#filter0_d_0_1)">
<path d="M81.8524 239.524C82.1314 240.138 82.1351 241.37 82.1571 242.029C82.1831 242.81 82.5633 243.427 82.5633 244.23C82.5633 244.967 82.4896 245.69 82.7213 246.385C83.1844 247.774 84.0296 249.256 84.6847 250.605C85.3859 252.049 86.0592 253.637 86.8738 255.006C87.4439 255.964 88.0082 257.052 88.4649 258.041C88.8486 258.873 89.3702 259.589 89.6723 260.445C90.23 262.025 91.1686 263.418 91.6583 265.071C92.1005 266.564 92.5159 267.602 92.5159 269.179C92.5159 271.119 91.5919 271.84 90.2929 273.139C89.018 274.414 87.8594 274.776 86.1178 274.776C85.3137 274.776 83.1095 275.167 82.4617 274.663C81.9303 274.249 81.2106 274.007 80.7353 273.557C80.2372 273.085 79.8874 272.506 79.415 272.034C78.713 271.332 78.2307 270.15 77.8014 269.292C77.345 268.379 76.8761 266.636 76.8761 265.636C76.8761 264.389 76.2668 263.346 76.2668 262.092C76.2668 259.05 75.5086 256.033 74.3936 253.246C74.1343 252.597 74.3725 251.695 73.9197 251.113C73.4419 250.499 73.22 249.557 73.22 248.777C73.22 247.424 72.1524 246.683 72.0014 245.324C71.9502 244.863 71.2683 244.334 71.1776 243.699C71.0405 242.74 70.0285 241.526 70 240.5" stroke="black" stroke-linecap="round" stroke-linejoin="round"/>
</g>
<g filter="url(#filter1_d_0_1)">
<path d="M83.5 188.5C83.5 189.487 81.9286 192.353 79 198.5C80.6263 195.353 76.8488 202.761 76.8761 203.28M76.8761 203.28C76.901 203.752 77.192 203.939 77.2936 204.397C77.5171 205.402 76.8761 202.281 76.8761 203.28ZM76.8761 203.28C76.8761 204.5 79.8799 209.481 80.5 210.5C81.3161 211.841 81.1415 218.206 81.1415 219.732C81.1415 222.809 81.1415 230.923 81.1415 234M81.1415 234.5L81.8524 239.524" stroke="#FF9900" stroke-linecap="round" stroke-linejoin="round"/>
</g>
<g filter="url(#filter2_d_0_1)">
<path d="M70 240C69.4521 238.63 67.9788 235.187 67.3297 233.589C65.8932 230.051 63.4706 224.607 63.4706 224.607" stroke="#FF9900" stroke-linecap="round" stroke-linejoin="round"/>
</g>
<path d="M39.5 240.5C40.2855 239.238 43.0149 236.126 44 235C44.9004 233.971 48.3161 231.153 49.5 230.5C52.2955 228.958 55.0196 226.53 57 224C57.7557 223.034 63.6234 205.085 62 214.5C62 208 63.5 225 63.5 225M63.5 225C63.8753 224.852 63.3303 225.339 63.5 225Z" stroke="#FF9900" stroke-linecap="round" stroke-linejoin="round"/>
<path d="M26 226.5C26.8862 225.184 34.1114 212.803 34.7727 211.208C34.7727 209.5 35.9004 208.16 36 207C36.2811 203.727 38.5132 201.31 39.9842 198.453C40.3045 197.831 40.1495 197.169 40.5301 196.546C40.9548 195.851 41.2785 195.473 41.5459 194.646C42.0142 193.198 43.2308 191.787 44.1989 190.799C45.1261 189.852 45.4562 188.375 46.3362 187.479C47.0099 186.794 47.1313 185.75 47.7364 185.04C48.2918 184.388 48.7177 183.813 49.2103 183.112C49.8654 182.18 50.4026 181.097 51.0636 180.189C51.6334 179.406 51.6207 178.518 52.007 177.592C52.5211 176.361 53.2589 175.471 53.7122 174.169C54.0742 173.129 54.5165 172.127 54.8314 171.065C55.5396 168.676 55.7865 162.486 56 160" stroke="#FF9900" stroke-linecap="round" stroke-linejoin="round"/>
<path d="M56 159L56.4946 153.241L54 143.5C53.8009 141.469 53.3593 127 53.3593 127" stroke="#FF0000" stroke-linecap="round" stroke-linejoin="round"/>
<path d="M59 106C58.6121 107.125 58.512 108.513 58.0022 109.534C57.6546 110.23 57.9213 111.031 57.5963 111.718C56.8425 113.311 56.6774 115.322 55.8714 116.86C55.4557 117.653 55.3869 118.057 55.0806 118.818C54.8346 119.43 54.6821 119.742 54.5581 120.455C54.4898 120.846 53.7021 121.953 53.4698 122.26C52.7827 123.168 52.977 126.033 53.2516 127" stroke="#00ADF8" stroke-linecap="round" stroke-linejoin="round"/>
<path d="M53.364 127.325C54.6849 127.325 55.6378 127.408 56.8079 126.854C57.2721 126.634 58.5382 126.53 59.0598 126.53C61.3435 126.53 63.5279 126 65.8152 126C71.834 126 76.8702 125.928 81.3278 130.386C83.1074 132.166 84.965 133.365 87.0678 134.742C89.2287 136.158 91.8429 138.57 94.3678 139.187C97.2412 139.89 100.446 141.282 103.434 141.365C105.197 141.414 104.236 141.365 106 141.365" stroke="#FF0000" stroke-linecap="round" stroke-linejoin="round"/>
<path d="M56 159.5C59 157 63.5 159.5 69.5 160.5C73 162 74.959 161.024 77.5 163C78.9571 163 79.2655 166.187 78.9602 167.255C78.6688 168.275 79.0624 165.414 79.0624 166.5C79.0624 167.185 77.8858 171.422 77.8858 172.141C77.8858 172.809 77.8858 173.476 77.8858 174.143C77.8858 175.811 77.8858 177.479 77.8858 179.147C77.8858 179.745 78.8873 184.387 80 185.5C80.5 186 83.4987 188.471 84 188.5" stroke="#FF0000" stroke-linecap="round" stroke-linejoin="round"/>
<path d="M69.868 240.34C72.5848 240.34 75.2937 240.234 78.0054 240.234C79.3224 240.234 80.3924 239.808 81.6838 239.808" stroke="black" stroke-linecap="round" stroke-linejoin="round"/>
<defs>
<filter id="filter0_d_0_1" x="65.5" y="239.024" width="31.5159" height="44.3963" filterUnits="userSpaceOnUse" color-interpolation-filters="sRGB">
<feFlood flood-opacity="0" result="BackgroundImageFix"/>
<feColorMatrix in="SourceAlpha" type="matrix" values="0 0 0 0 0 0 0 0 0 0 0 0 0 0 0 0 0 0 127 0" result="hardAlpha"/>
<feOffset dy="4"/>
<feGaussianBlur stdDeviation="2"/>
<feColorMatrix type="matrix" values="0 0 0 0 0 0 0 0 0 0 0 0 0 0 0 0 0 0 0.25 0"/>
<feBlend mode="normal" in2="BackgroundImageFix" result="effect1_dropShadow_0_1"/>
<feBlend mode="normal" in="SourceGraphic" in2="effect1_dropShadow_0_1" result="shape"/>
</filter>
<filter id="filter1_d_0_1" x="72.376" y="188" width="15.624" height="60.0242" filterUnits="userSpaceOnUse" color-interpolation-filters="sRGB">
<feFlood flood-opacity="0" result="BackgroundImageFix"/>
<feColorMatrix in="SourceAlpha" type="matrix" values="0 0 0 0 0 0 0 0 0 0 0 0 0 0 0 0 0 0 127 0" result="hardAlpha"/>
<feOffset dy="4"/>
<feGaussianBlur stdDeviation="2"/>
<feColorMatrix type="matrix" values="0 0 0 0 0 0 0 0 0 0 0 0 0 0 0 0 0 0 0.25 0"/>
<feBlend mode="normal" in2="BackgroundImageFix" result="effect1_dropShadow_0_1"/>
<feBlend mode="normal" in="SourceGraphic" in2="effect1_dropShadow_0_1" result="shape"/>
</filter>
<filter id="filter2_d_0_1" x="58.9705" y="224.106" width="15.5297" height="24.3937" filterUnits="userSpaceOnUse" color-interpolation-filters="sRGB">
<feFlood flood-opacity="0" result="BackgroundImageFix"/>
<feColorMatrix in="SourceAlpha" type="matrix" values="0 0 0 0 0 0 0 0 0 0 0 0 0 0 0 0 0 0 127 0" result="hardAlpha"/>
<feOffset dy="4"/>
<feGaussianBlur stdDeviation="2"/>
<feColorMatrix type="matrix" values="0 0 0 0 0 0 0 0 0 0 0 0 0 0 0 0 0 0 0.25 0"/>
<feBlend mode="normal" in2="BackgroundImageFix" result="effect1_dropShadow_0_1"/>
<feBlend mode="normal" in="SourceGraphic" in2="effect1_dropShadow_0_1" result="shape"/>
</filter>
</defs>
</svg>
