<?xml version="1.0" encoding="utf-8"?>
<!-- Generator: Adobe Illustrator 23.0.3, SVG Export Plug-In . SVG Version: 6.00 Build 0)  -->
<svg version="1.1" id="Layer_1" xmlns="http://www.w3.org/2000/svg" xmlns:xlink="http://www.w3.org/1999/xlink" x="0px" y="0px"
	 viewBox="0 0 714 714" style="enable-background:new 0 0 714 714;" xml:space="preserve">
<style type="text/css">
	.st0{fill:#000302;}
</style>
<g>
	<path class="st0" d="M483.9816895,538.3911133c-8.3474121-6.2666016-17.2358398-11.2893066-26.4508057-15.1203613
		c20.3970947-6.8066406,39.7215576-17.923584,56.5560303-33.434082c5.9185791-5.447998,11.3079834-11.2458496,16.1877441-17.3366699
		c25.9545898-32.3371582,37.3369141-72.8242188,33.7437744-112.3137207
		c-46.4327393-8.0878906-95.9759521,4.7695313-133.3035889,39.1547852
		c-12.6757813,11.6826172-22.9936523,24.9592285-30.9050293,39.2661133
		c-3.8421631,6.9147949-7.1224365,14.065918-9.8424072,21.3842773c0.1324463-1.2558594,0.2653809-2.5114746,0.395874-3.767334
		c0.3164063-2.9318848,0.5947266-5.8696289,0.9416504-8.7963867l1.1518555-8.7629395l1.1506348-8.762207
		c0.3908691-2.9191895,0.9250488-5.8112793,1.3688965-8.7197266l1.3500977-8.7211914
		c0.2385254-1.4504395,0.4194336-2.9143066,0.704834-4.3540039l0.8251953-4.326416l1.6489258-8.6540527
		c0.5551758-2.8833008,1.0563965-5.7814941,1.7709961-8.6210938l4.0019531-17.1928711
		c1.4768066-6.0429688,2.5722656-12.1142578,3.4035645-18.1879883c1.6906738-12.1484375,2.3884277-24.3054199,2.5100098-36.420166
		c0.0859375-12.1137695-0.3625488-24.1975098-1.4462891-36.2102051c-1.0283203-12.0168457-2.5717773-23.9697266-4.53125-35.8469238
		c-1.9692383-11.8754883-4.3852539-23.6755371-7.3654785-35.3393555c-1.463623-5.8378906-3.1025391-11.6330566-4.8095703-17.4060059
		c-1.7626953-5.7592773-3.6142578-11.4919434-5.6462402-17.1679688
		c-4.0576172-11.3520508-8.8308105-22.4753418-14.4787598-33.1896973
		c-5.7036133-10.6635742-12.3244629-21.012207-20.916748-29.8190918c-3.083252-3.1367188-6.4360352-6.065918-10.1030273-8.5783691
		c0.1260986-0.0649414,0.2521973-0.123291,0.3782959-0.1906738c0,0-8.5772705-14.4831543-31.4459229-20.6306152
		c-22.8687134-6.1474609-42.9319458-8.887207-46.0667725-0.8469238
		c-3.0059814,7.7099609,21.4199829,10.1484375,36.9102783,15.6540527c-0.6774902,1.7954102-0.7197266,3.7224121-0.6350098,5.0029297
		c-1.4978027,0.4494629-4.0792236,1.7412109-8.1486816,5.1914063c-6.0593872,5.137207-9.0890503,14.4897461-7.7717896,20.1540527
		c0.7231445,3.109375,1.8392944,3.9157715,2.3539429,4.6867676c-1.364502,2.0371094-3.644165,5.2919922-6.2330933,8.376709
		c-0.3356323,0.3986816-0.6763916,0.7946777-1.0210571,1.1848145c-2.0678711,2.3410645-4.2747192,4.4729004-6.3340454,5.7429199
		c-0.3432007,0.2116699-0.682373,0.3994141-1.0160522,0.5603027c-1.0703125,0.5144043-2.3432617,1.324707-3.7434082,2.4001465
		c-0.5601196,0.4304199-1.140564,0.902832-1.7365112,1.4160156c-0.2979736,0.2565918-0.5997925,0.5231934-0.9049683,0.7995605
		c-0.6102905,0.5532227-1.2337036,1.145752-1.8654175,1.7758789c-0.3158569,0.3149414-0.633728,0.6394043-0.953125,0.9729004
		c-0.6387939,0.6672363-1.2834473,1.3708496-1.9291992,2.1091309c-1.2914429,1.4765625-2.5870972,3.0913086-3.8484497,4.8288574
		c-0.6306763,0.8686523-1.2527466,1.7680664-1.8613892,2.6962891c-0.9129639,1.3920898-1.7957153,2.848877-2.632019,4.3635254
		c-2.7876587,5.0488281-5.0588989,10.7419434-6.2105713,16.8334961c-0.9226685,4.8747559-1.3677368,9.4855957-1.4154053,13.6784668
		c-0.1133423,9.9580078,2.0147095,17.5581055,5.3091431,20.7351074c0.1734009,0.1672363,0.3499756,0.3222656,0.5297241,0.4648438
		c0.71875,0.5695801,1.4867554,0.9382324,2.2938843,1.0869141c0.5767212,0.1071777,1.2096558,0.168457,1.8885498,0.1889648
		c0.2078247,0.0068359,0.4187622,0.0102539,0.6343994,0.0102539c4.7973633,0,11.4118652-1.6586914,15.0647583-2.6911621
		c6.1905518,9.3986816,14.9278564,14.6083984,15.2109985,14.6083984c0.3952026,0,16.729187-6.7180176,24.1056519-18.5732422
		c1.0839844-1.7421875,2.0249023-3.6901855,2.8393555-5.7731934c2.5981445,5.0180664,6.527832,10.5793457,22.5689697,18.7329102
		c0.0001221,0,0.0001221,0,0.0001221,0c0.1228027,0.0634766,0.2510986,0.1269531,0.3764648,0.1904297
		c0.1875,0.0947266,0.3730469,0.1896973,0.5627441,0.2844238c0,0,1.9464111-2.6784668,3.4707031-8.8713379
		c0.375-1.5231934,0.7263184-3.2451172,1.0146484-5.208252c0.2087402-1.4206543,0.385498-2.9602051,0.5168457-4.6228027
		c1.0566406-13.3071289-9.6165771-39.9160156-9.6165771-39.9160156s-0.7918701-1.1879883-1.9769287-3.0039063
		s-2.7634277-4.2597656-4.3366699-6.7717285c-0.1748047-0.2790527-0.3494873-0.559082-0.5236816-0.8391113
		c-0.456543-0.734375-0.9073486-1.4677734-1.3457031-2.1889648c-0.2303467-0.3793945-0.458252-0.7561035-0.6794434-1.1259766
		c-1.444458-2.4150391-2.6623535-4.5874023-3.2553711-5.9570313c-1.5975342-3.6940918-5.5383301-11.0927734-7.354248-14.4614258
		c2.0930176-2.6635742,8.0461426-11.8791504,5.2471924-20.0522461c-2.7686768-8.0844727-6.1068115-11.8769531-12.1060791-13.5090332
		c0.0600586-0.8864746,0.1762695-2.267334,0.375-3.6120605c11.5941162,4.6142578,21.0814209,8.3723145,30.3259277,6.0197754
		c4.1855469,2.8356934,7.9309082,6.3557129,11.3129883,10.1933594c3.8061523,4.3269043,7.1472168,9.0878906,10.1984863,14.0327148
		c3.0527344,4.9477539,5.8120117,10.0959473,8.3137207,15.3786621c2.4931641,5.2885742,4.7612305,10.6911621,6.8623047,16.1623535
		c2.0898438,5.4775391,3.9648438,11.0422363,5.7719727,16.6269531c7.1181641,22.3979492,11.7805176,45.567627,15.0996094,68.8391113
		c3.2185059,23.2956543,4.6748047,46.8371582,4.1477051,70.197998c-0.3210449,11.6726074-1.2038574,23.3100586-2.9968262,34.7067871
		c-0.8808594,5.699707-2.0048828,11.3349609-3.4516602,16.8266602l-4.2094727,17.545166
		c-0.7524414,2.9291992-1.2854004,5.892334-1.873291,8.847168l-1.744873,8.8681641l-0.8718262,4.4343262
		c-0.3010254,1.4770508-0.4956055,2.967041-0.7485352,4.4499512l-1.4343262,8.907959
		c-0.4489746,2.9731445-0.9567871,5.9411621-1.3364258,8.9208984l-1.1032715,8.9423828l-1.1022949,8.9418945
		c-0.3295898,2.9831543-0.5898438,5.9714355-0.8879395,8.9567871c-0.5710449,5.9724121-1.2172852,11.9399414-1.5412598,17.9262695
		c-0.3723145,5.982666-0.8713379,11.9589844-1.0915527,17.9453125c-0.6381836,11.9645996-0.9489746,23.9377441-1.0268555,35.9060059
		c-0.1503906,23.9533691,0.5004883,47.8205566,2.6682129,71.762207c0.1914063,2.048584,1.9255371,3.6589355,4.0202637,3.6403809
		c2.2097168-0.0192871,3.9853516-1.8266602,3.9658203-4.036377l-0.0007324-0.0869141
		c-0.1206055-13.6875-0.0021973-27.4306641,0.3068848-41.1699219c7.6346436,22.4729004,21.8779297,42.9702148,42.2851563,58.295166
		c5.0078125,3.7644043,10.2087402,7.0737305,15.5620117,9.9516602
		c28.4289551,15.3154297,61.0432129,18.3200684,90.7806396,9.9960938
		C532.421875,598.2578125,515.5837402,562.1276855,483.9816895,538.3911133z M281.5917358,151.260498
		c-0.9570313,1.3903809-2.0076294,2.8427734-3.1948242,4.3862305c-5.2689819,6.8498535-15.8070068,31.4824219-12.3821411,49.001709
		c0.7474976,3.8239746,2.135437,7.2958984,3.8521729,10.3881836c-3.602417,0.9882813-9.3319092,2.3569336-13.4470825,2.3569336
		c-0.1817627,0-0.3596191-0.0026855-0.5437622-0.0087891c-0.5377197-0.0163574-1.019165-0.0634766-1.435791-0.1408691
		c-0.3919067-0.0722656-0.8144531-0.3376465-1.239563-0.7368164c-1.0883789-2.1643066-1.9846191-4.9328613-2.203186-8.4355469
		c-0.6583862-10.5354004,5.7730103-32.6677246,14.3483887-45.1787109
		c7.6555176-11.1799316,12.4733887-14.3041992,14.0664673-18.001709c1.298584-1.2277832,2.6657104-2.6877441,4.1212769-4.4172363
		c0.1582642-0.1887207,0.3091431-0.378418,0.4649048-0.567627
		C282.6498413,143.4885254,281.5115967,147.6418457,281.5917358,151.260498z M315.1186523,151.8684082
		c1.4611816,8.5979004,3.9250488,24.0661621,3.9250488,24.0661621s6.7734375,29.7685547,11.5153809,41.3605957
		c0.6088867,1.4926758,1.2409668,2.8015137,1.8808594,3.9763184c-12.3474121-7.0161133-14.6755371-11.7084961-16.9277344-16.2617188
		c-0.1677246-0.3391113-0.3400879-0.6843262-0.5147705-1.0307617c3.4138184-11.5727539,3.477417-25.8366699,1.4681396-33.9741211
		c-0.9752197-3.9494629-2.1674805-7.0297852-3.4488525-9.6806641
		C314.3789063,157.7216797,314.9802246,154.7924805,315.1186523,151.8684082z"/>
	<path class="st0" d="M313.2756348,388.0895996c-0.4960938-0.2480469-0.4960938-2.1496582-0.661499-2.4804688
		s-1.571167-0.9924316-2.1499023-1.0749512c-0.5787354-0.0827637-1.4884033-0.1655273-2.0672607-0.8269043
		c-0.5787354-0.661377-1.6535645-1.6538086-3.5554199-1.7365723c-1.9018555-0.0825195-4.5478516,0.2480469-4.8786621,0.4135742
		c-0.3306885,0.1652832-3.1420898-0.7441406-4.6303711-6.8630371c-1.4884033-6.1188965-4.4650879-10.7492676-5.2919922-18.5219727
		s0.7441406-17.8603516-4.5477905-30.9250488c-5.2919922-13.0644531-7.2764893-22.5734863-6.9457397-26.1291504
		c0.3307495-3.5554199,4.9612427-5.1264648,5.2092896-8.0205078s-0.9922485-4.2998047-3.2247925-4.5478516
		s-3.8862915,0.1652832-3.8862915-0.7441406c0-0.909668,3.9689941-4.7958984,1.2402954-5.9536133
		c-2.7286987-1.1574707-4.7131958-0.9094238-6.1188354-0.8269043c-1.4057007,0.0827637-2.5632935-0.3305664-3.3074951-1.4055176
		s-2.2325439-1.4885254-3.3074951,0c-1.0749512,1.4882813-1.4057007,3.307373-1.4883423,3.5554199
		c-0.0827026,0.2480469-3.3074951,0.7441406-3.555603,0.7441406c-0.2480469,0-0.8268433,0.4135742-0.661438,1.3232422
		c0.1653442,0.9094238,1.9017944,2.8112793,2.6459351,4.6303711c0.7442017,1.8190918,1.4884033,4.4650879,1.1576538,5.3745117
		c-0.3307495,0.909668-1.5710449,1.6538086-1.2402954,3.4731445c0.3307495,1.8188477,2.7286377,3.307373,3.1420898,7.3588867
		c0.4134521,4.0517578,1.9017944,14.8012695,2.5632935,21.0026855s1.9844971,17.0334473,1.322998,19.5969238
		c-0.661499,2.5632324-1.322998,4.1342773-1.322998,4.1342773s-0.1033325-1.5917969-2.0878296-3.9482422
		c-1.9844971-2.3566895-2.7907104-1.1782227-4.4030762-4.4650879c-1.6124268-3.2868652-3.1628418-5.7055664-6.0155029-5.0852051
		c-2.8527222,0.6201172-1.0542603,1.550293-7.1317749,3.8447266c-6.0775146,2.2946777-9.7984619,1.6745605-15.9379883,6.7597656
		s-6.2635498,6.6977539-8.6821289,7.0698242s-8.1860352-2.8527832-12.0310059-3.8449707
		c-3.8449097-0.9924316-4.7751465,0.3720703-4.7751465,0.3720703s1.7984619,5.6433105,5.8914185,10.4807129
		c4.0930176,4.8369141,3.348877,8.9301758,4.899231,11.0385742c1.550415,2.1083984,2.666687,8.2480469,7.0077515,14.015625
		c4.3410645,5.767334,13.0852661,13.3745117,16.5581055,14.4494629s4.5477905,1.7363281,5.4573364,3.7209473
		c0.9095459,1.984375,4.7958984,5.9533691,6.449646,9.1782227c1.6536865,3.2248535,2.7286377,12.8991699,2.6459351,17.2817383
		c-0.0826416,4.3823242-4.5477905,26.4597168-8.8474731,35.3901367
		c-4.2997437,8.9301758-15.2557983,29.8085938-15.2557983,29.8085938s-8.6821899,12.7751465-12.1550293,19.1005859
		c-3.4728394,6.3256836-9.3023071,14.7597656-15.5038452,19.4729004s-10.5426025,10.4187012-24.9301758,9.3024902
		c-14.3875732-1.1164551-14.883667-2.4807129-18.7286377-6.9458008s-5.0852661-7.0698242-7.1937866-7.3178711
		s-6.0775146,2.7287598-1.4884033,10.9147949c4.5891724,8.1860352,13.3953247,15.3796387,22.9457397,17.6123047
		c9.550354,2.232666,22.5735474,0.2480469,31.3797607-2.8527832c8.8061523-3.1005859,12.8991699-7.8139648,12.8991699-7.8139648
		s0.1240845,6.3742676-2.3565674,11.6210938c-2.4805908,5.2470703-3.2247925,9.4643555-7.4418335,15.0456543
		s-7.5658569,6.8215332-7.0697632,12.0310059c0.4961548,5.2092285,2.2325439,20.4650879,4.3410645,25.7983398
		s2.7286987,7.565918,4.4651489,8.5581055c1.7363892,0.9921875,10.4185791,1.6123047,13.0231934,1.2402344
		c2.6046753-0.3720703,3.5969238-0.2480469,3.3488159-2.9765625c-0.2480469-2.7287598-1.116272-8.0620117-2.1085205-8.5581055
		s-4.0930176-3.9689941-5.4573364-6.9458008s-1.7364502-12.0310059,0-14.1396484
		c1.7364502-2.1083984,0.8682251-2.3564453,1.7364502-2.1083984c0.6705322,0.1916504,7.699707-5.3112793,11.1531982-8.8564453
		c-2.3578491,3.6870117-6.2786865,9.9975586-8.0524292,10.9648438c0,0,7.9379272,11.6589355,12.651123,15.6279297
		s6.0775146,6.3256836,8.9302368,6.6977539c2.8526611,0.3720703,9.1782837,0.8681641,12.0309448,0.2480469
		c2.8527222-0.6201172,4.0930176-2.1083984,3.348877-3.4729004c-0.7442017-1.3642578-0.1240845-7.4418945-10.0465088-7.6899414
		c0,0-11.9069824-10.0463867-11.4108276-12.8991699c0.4960938-2.8525391,1.8604736-3.9689941,3.2247925-4.217041
		s20.8371582-12.5270996,26.9146729-22.5734863c6.0775146-10.0466309,6.6976318-26.666748,11.7828979-33.984375
		c5.0852661-7.3178711,21.8294678-29.1474609,24.3100586-50.4807129s4.7131348-66.9765625,3.5968018-70.6975098
		c-1.1162109-3.7209473-0.8681641-2.6044922-1.1162109-3.7209473c-0.2480469-1.1162109,1.6124268-5.0852051,3.2248535-5.8293457
		c1.6123047-0.7441406,1.2402344-2.232666,2.2325439-4.0517578
		C314.9293213,389.9914551,313.7717285,388.3376465,313.2756348,388.0895996z"/>
</g>
</svg>
