<?xml version="1.0" encoding="utf-8"?>
<!-- Generator: Adobe Illustrator 25.2.1, SVG Export Plug-In . SVG Version: 6.00 Build 0)  -->
<svg version="1.1" id="Слой_2" xmlns="http://www.w3.org/2000/svg" xmlns:xlink="http://www.w3.org/1999/xlink" x="0px" y="0px"
	 viewBox="0 0 714 714" style="enable-background:new 0 0 714 714;" xml:space="preserve">
<style type="text/css">
	.st0{fill:#FAFAFA;}
	.st1{fill:#E6E6E6;}
	.st2{fill:#BFADD5;}
	.st3{fill:#AC9ACA;}
	.st4{fill:#9386B2;}
	.st5{fill:#F2F2F2;}
	.st6{fill:#FFDB0B;}
	.st7{fill:#978DB7;}
	.st8{fill:#C9BDD6;}
	.st9{fill:#C8BADC;}
	.st10{fill:#6EB52C;}
	.st11{fill:#2F358B;}
	.st12{fill:#FFEE00;}
	.st13{fill:#40519E;}
	.st14{fill:#282B74;}
	.st15{fill:#D8EDEC;}
	.st16{fill:#77BAE7;}
	.st17{fill:#0871B8;}
	.st18{fill:#005CA9;}
	.st19{fill:#48A5DC;}
	.st20{fill:#00B0EA;}
	.st21{fill:#006FB9;}
	.st22{fill:#1A1A1A;}
	.st23{fill:#1D1D1E;}
	.st24{fill:#47474B;}
	.st25{fill:#28292A;}
	.st26{fill:#FFD300;}
	.st27{fill:#754D24;}
	.st28{fill:#543616;}
	.st29{fill:#62401C;}
	.st30{fill:#EFEFEE;}
	.st31{fill:#F7A715;}
	.st32{fill:#47AE4C;}
	.st33{fill:#44A549;}
	.st34{fill:#F7F1F4;}
	.st35{fill:#F9B97F;}
	.st36{fill:#026838;}
	.st37{fill:#FFDA00;}
	.st38{fill:#333333;}
	.st39{fill:#EB5C88;}
	.st40{fill:#F9BB3E;}
	.st41{fill:#40BFE6;}
	.st42{fill:#A079B4;}
	.st43{fill:#9370A5;}
	.st44{fill:#010202;}
</style>
<g>
	<path class="st44" d="M599.315918,427.6299744c0.6728516-2.4150391,0.7392578-4.9892578,0.1083984-7.5126953
		c-12.6279297-50.5869141-39.8300781-95.9262695-78.6650391-131.1142578
		c-24.5712891-22.2651367-52.4951172-39.2739258-82.9941406-50.5537109
		c-31.5019531-11.6508789-64.2363281-16.5927734-97.2919922-14.6884766
		c-60.6118164,3.5019531-118.2358398,30.1791992-162.2568359,75.1191406
		c-30.2148438,30.8457031-52.3818359,68.7949219-64.5537109,110.3144531
		c-11.7480469,6.609375-19.7978516,19.9111328-19.7978516,35.2207031c0,21.8710938,16.4174805,39.6650391,36.5966797,39.6650391
		c5.3852539,0,10.7304688-1.3017578,15.5825195-3.7802734c6.7260742,5.765625,15.0410156,8.9179688,23.6352539,8.9179688
		c8.8701172,0,17.3725586-3.3203125,24.1928711-9.3994141c5.9511719,3.9160156,12.7246094,5.9746094,19.7319336,5.9746094
		c7.2626953,0,14.2553711-2.2050781,20.3544922-6.3974609c4.3491211,3.0712891,9.3422852,4.6845703,14.5664062,4.6845703
		c14.7631836,0,26.7749023-12.9667969,26.7749023-28.9042969c0-9.2226562-4.0273438-17.4443359-10.2768555-22.7402344
		c0.671875-0.9941406,1.222168-2.0869141,1.6083984-3.2705078c10.9101562-33.4375,45.1376953-58.1435547,83.2363281-60.0820312
		c41.1630859-2.0830078,79.8007812,21.9160156,93.0976562,57.3925781
		c-2.7177734,5.6113281-4.2646484,12.0048828-4.2646484,18.7900391c0,22.1474609,16.4179688,40.1669922,36.5966797,40.1669922
		c5.3847656,0,10.7294922-1.3183594,15.5830078-3.8271484c6.7255859,5.8388672,15.0410156,9.03125,23.6347656,9.03125
		c8.8691406,0,17.3730469-3.3623047,24.1943359-9.5185547c5.9501953,3.9648438,12.7216797,6.0488281,19.7304688,6.0488281
		c7.2626953,0,14.2558594-2.2333984,20.3564453-6.4785156c4.3486328,3.1113281,9.3398438,4.7441406,14.5644531,4.7441406
		c14.7636719,0,26.7744141-13.1308594,26.7744141-29.2705078
		C620.1352539,442.2598572,611.2211914,430.5987244,599.315918,427.6299744z M593.3608398,479.6846619
		c-4.5898438,0-8.96875-1.6582031-12.6650391-4.7939453l-1.7851562-1.515625l-1.8417969,1.4472656
		c-5.4882812,4.3154297-11.9306641,6.5966797-18.6289062,6.5966797c-6.5419922,0-12.8564453-2.1816406-18.2617188-6.3066406
		l-2.0136719-1.5380859l-1.7744141,1.8105469c-6.0019531,6.1279297-13.7705078,9.5039062-21.875,9.5039062
		c-7.7851562,0-15.3232422-3.1484375-21.2265625-8.8662109l-1.5791016-1.5302734l-1.8867188,1.1279297
		c-4.4472656,2.6591797-9.4697266,4.0644531-14.5253906,4.0644531c-17.0146484,0-30.8583984-15.4404297-30.8583984-34.4189453
		c0-4.1523438,0.6630859-8.1337891,1.8759766-11.8222656c0.3632812-1.1044922,0.7802734-2.1796875,1.2412109-3.2265625
		c0.5019531-1.1416016,1.0566406-2.2509766,1.6640625-3.3193359c2.8525391-5.0205078,6.8320312-9.1669922,11.5458984-11.9863281
		c0.8261719-0.4941406,1.6748047-0.9472656,2.5439453-1.3574219c0.8662109-0.4082031,1.7519531-0.7744141,2.6552734-1.0947266
		c2.9453125-1.0449219,6.0800781-1.6132812,9.3320312-1.6132812l0.1455078,0.0039062
		c1.0664062,0.0058594,2.1425781,0.0820312,3.2207031,0.2158203c0.859375,0.1064453,1.7197266,0.2460938,2.5771484,0.4335938
		l0.7529297,0.1650391l1.7353516,0.3798828l0.8349609-2.4111328c1.8525391-5.3525391,4.6806641-10.0927734,8.1777344-14.0517578
		c0.6757812-0.7646484,1.3769531-1.4990234,2.1015625-2.2011719c0.7167969-0.6962891,1.4580078-1.3623047,2.2197266-1.9960938
		c3.7763672-3.1386719,8.0664062-5.4804688,12.6523438-6.8574219c0.9628906-0.2880859,1.9365234-0.5351562,2.9208984-0.7382812
		c0.9814453-0.2011719,1.9736328-0.359375,2.9755859-0.4707031c1.1943359-0.1328125,2.3955078-0.2246094,3.6103516-0.2246094
		c6.2626953,0,12.2890625,1.7841797,17.6064453,4.9902344c1.5263672,0.9199219,2.9873047,1.9658203,4.3828125,3.1152344
		c1.7568359,1.4482422,3.40625,3.0644531,4.9208984,4.8408203c2.8134766,3.3007812,5.1806641,7.1279297,6.9228516,11.4111328
		l0.796875,1.9580078l2.1044922-0.1787109c0.9287109-0.0791016,1.7402344-0.1181641,2.4833984-0.1181641
		c2.8564453,0,5.6455078,0.4414062,8.3242188,1.2363281c1.1660156,0.3466797,2.3076172,0.7666016,3.4248047,1.2509766
		c1.2246094,0.5302734,2.4179688,1.1376953,3.5722656,1.8291016c6.3115234,3.7841797,11.4716797,9.8632812,14.4482422,17.5214844
		l0.3515625,0.9052734l0.4511719,1.1591797l2.1982422-0.2509766c0.5439453-0.0625,1.0888672-0.09375,1.6298828-0.109375
		c0.1738281-0.0048828,0.3486328-0.0146484,0.5205078-0.0146484c1.0917969,0,2.15625,0.1220703,3.2041016,0.3017578
		c10.0791016,1.734375,17.8320312,11.4716797,17.8320312,23.2216797
		C614.3969727,469.1329041,604.9604492,479.6846619,593.3608398,479.6846619z M248.5249023,478.4043884
		c-4.5888672,0-8.96875-1.6376953-12.6665039-4.734375l-1.7856445-1.4970703l-1.8413086,1.4287109
		c-5.4882812,4.2626953-11.9311523,6.515625-18.6274414,6.515625c-6.5410156,0-12.855957-2.1542969-18.2626953-6.2294922
		l-2.0151367-1.5185547l-1.7729492,1.7880859c-6.0009766,6.0527344-13.7695312,9.3847656-21.8740234,9.3847656
		c-7.7851562,0-15.3232422-3.109375-21.2290039-8.7548828l-1.5791016-1.5107422l-1.8862305,1.1132812
		c-4.4443359,2.6269531-9.4667969,4.0146484-14.5234375,4.0146484c-17.0151367,0-30.8583984-15.2470703-30.8583984-33.9892578
		c0-10.7685547,4.5751953-20.3759766,11.6914062-26.6074219c1.168457-1.0234375,2.4086914-1.9492188,3.7041016-2.7822266
		c1.128418-0.7246094,2.2978516-1.3818359,3.512207-1.9453125c3.6777344-1.7080078,7.715332-2.6533203,11.9506836-2.6533203
		c1.9624023,0,3.9619141,0.2167969,5.9433594,0.6445312l0.7880859,0.1708984l1.7001953,0.3671875l0.8349609-2.3808594
		c1.0957031-3.1259766,2.5322266-6.0429688,4.2460938-8.7119141c1.7275391-2.6894531,3.7373047-5.1289062,5.96875-7.2773438
		c5.1650391-4.9726562,11.5239258-8.3720703,18.3847656-9.6445312c1.0986328-0.2041016,2.2089844-0.3515625,3.3286133-0.4482422
		c0.9038086-0.0791016,1.8134766-0.1259766,2.7294922-0.1259766c0.159668,0,0.3168945,0.0175781,0.4760742,0.0195312
		c6.0546875,0.0869141,11.8759766,1.8056641,17.034668,4.8554688c0.8193359,0.484375,1.621582,1.0009766,2.4067383,1.5488281
		c0.8120117,0.5664062,1.6049805,1.1650391,2.3740234,1.8017578c4.09375,3.3876953,7.5610352,7.7197266,10.1269531,12.7734375
		c0.5043945,0.9931641,0.9838867,2.0068359,1.4150391,3.0537109l0.2661133,0.6455078l0.5307617,1.2871094l2.1025391-0.1757812
		l0.0214844-0.0009766c0.9379883-0.078125,1.722168-0.1152344,2.4638672-0.1152344
		c4.7988281,0,9.425293,1.1708984,13.6113281,3.3085938c0.8666992,0.4423828,1.7124023,0.9306641,2.5366211,1.4580078
		c0.8266602,0.5283203,1.6318359,1.0976562,2.4155273,1.7011719c3.4213867,2.6376953,6.3876953,5.9980469,8.6962891,9.9521484
		c0.9477539,1.6230469,1.7963867,3.3339844,2.5087891,5.1445312l0.8022461,2.0390625l2.1967773-0.2490234l0.2211914-0.0185547
		c0.6469727-0.0654297,1.2958984-0.1035156,1.9321289-0.1035156c3.4487305,0,6.6992188,0.9316406,9.5708008,2.5683594
		c0.9570312,0.5458984,1.871582,1.1699219,2.737793,1.8632812c5.2758789,4.2246094,8.7275391,11.0664062,8.7275391,18.7978516
		C269.5610352,467.98349,260.1240234,478.4043884,248.5249023,478.4043884z M435.7924805,243.8926697
		c29.8105469,11.0249023,57.109375,27.6542969,81.1357422,49.4248047
		c37.9814453,34.4155273,64.5849609,78.7519531,76.9326172,128.2167969c0.453125,1.8173828,0.3144531,3.6767578-0.3427734,5.3613281
		l-0.1572266-0.0048828c-0.2060547,0-0.4140625,0.0029297-0.6220703,0.0078125
		c-4.4375-9.9785156-12.1914062-17.4394531-21.421875-21.0722656
		C539.012207,310.967865,451.8598633,246.5401306,354.5581055,246.5401306c-4.2353516,0-8.5029297,0.1225586-12.7734375,0.3696289
		c-85.7871094,4.9555664-162.2919922,62.0458984-196.7490234,143.1655273
		c-4.1152344,4.1923828-7.5136719,9.2558594-9.8647461,15.0117188c-1.5737305-0.2236328-3.1494141-0.3359375-4.7094727-0.3359375
		c-3.4321289,0-6.75,0.5253906-9.9018555,1.4873047c12.1630859-38.8066406,33.3076172-74.2592773,61.7368164-103.28125
		c43.0209961-43.9189453,99.3125-69.9897461,158.5039062-73.4086914
		C373.0688477,227.6856384,405.0297852,232.5157166,435.7924805,243.8926697z M347.1420898,331.9429626
		c52.9970703-2.8613281,103.234375,27.5454102,125.6943359,73.2563477
		c-3.2226562,0.2363281-6.3291016,0.9326172-9.2714844,2.0283203c-7.0771484-14.3652344-17.5419922-27.28125-30.8056641-37.8662109
		c-23.6904297-18.9077148-53.5878906-28.4580078-84.2197266-26.909668
		c-28.3095703,1.440918-55.2763672,12.4638672-75.9365234,31.0385742
		c-13.7006836,12.3183594-24.0170898,27.4990234-29.9907227,44.0791016
		c-2.3989258-3.0498047-5.175293-5.6923828-8.2446289-7.8535156
		C253.3710938,365.7041931,297.3452148,334.6250916,347.1420898,331.9429626z M354.0209961,325.9605408
		c-2.3876953,0-4.7851562,0.0639648-7.1845703,0.1938477c-51.7158203,2.7851562-97.4350586,34.953125-117.4506836,80.5898438
		c-4.8603516-2.3955078-10.21875-3.7060547-15.7817383-3.7060547l-0.25,0.0039062
		c7.793457-18.9960938,19.6665039-36.3339844,34.9677734-50.8984375
		c26.5263672-25.2480469,61.2080078-40.2333984,97.6582031-42.1958008
		c39.4736328-2.1318359,77.9833984,10.8876953,108.4599609,36.6357422
		c14.7841797,12.4897461,26.7568359,27.2348633,35.5224609,43.5600586c-4.15625,4.2636719-7.5878906,9.4238281-9.9550781,15.2949219
		c-0.234375-0.0332031-0.46875-0.046875-0.703125-0.0761719
		C457.4907227,358.2193298,407.6342773,325.9605408,354.0209961,325.9605408z M458.1206055,342.1377869
		c-31.5917969-26.6923828-71.5439453-40.1757812-112.4453125-37.9785156
		c-37.8046875,2.0361328-73.7763672,17.5786133-101.2895508,43.7661133
		c-14.9472656,14.2270508-26.7314453,31.0170898-34.8232422,49.3920898
		c-2.8320312-4.4111328-6.3222656-8.2197266-10.2861328-11.2919922
		c27.9926758-53.9038086,83.8076172-91.9638672,145.3452148-95.3735352
		c67.28125-3.7368164,130.09375,32.4291992,162.265625,88.7163086c-4.5068359,1.5078125-8.7324219,3.8417969-12.5371094,6.8291016
		C485.3041992,369.7071228,473.1069336,354.7984314,458.1206055,342.1377869z M464.0366211,321.7310486
		c-31.6728516-24.1308594-70.3193359-37.1420898-109.7939453-37.1420898c-3.3066406,0-6.6220703,0.0913086-9.9345703,0.2753906
		c-38.5673828,2.1367188-76.3813477,17.5302734-106.4746094,43.3447266
		c-17.9248047,15.3754883-32.6586914,34.0341797-43.3730469,54.5791016
		c-5.1782227-2.9873047-10.934082-4.8349609-16.9433594-5.3144531
		c9.7666016-19.7294922,22.8666992-37.8422852,38.9448242-53.5839844
		c34.4570312-33.737793,79.5239258-53.7636719,126.9018555-56.3886719
		c51.3125-2.8408203,101.3642578,14.5463867,140.9755859,48.9711914
		c20.7841797,18.0639648,37.2460938,39.5649414,48.7763672,63.4506836c-4.4042969-1.6669922-9.0839844-2.578125-13.8935547-2.578125
		c-2.1933594,0-4.3603516,0.1972656-6.4902344,0.5605469C500.7006836,356.26474,484.1665039,337.0684509,464.0366211,321.7310486z
		 M488.0825195,312.0787048c-40.7402344-35.4067383-92.2470703-53.2963867-145.0322266-50.3652344
		c-48.7587891,2.7011719-95.1328125,23.3041992-130.5830078,58.0141602
		c-17.2514648,16.8911133-31.1796875,36.4355469-41.3549805,57.7607422
		c-5.8032227,0.4902344-11.3637695,2.2929688-16.402832,5.1396484
		c35.4194336-73.9418945,107.2592773-125.3017578,187.4023438-129.9306641h0.0009766
		c98.4404297-5.7172852,188.4873047,56.7822266,222.4482422,151.2265625
		c-2.0029297-0.3564453-4.0458984-0.5595703-6.1210938-0.5595703c-0.2900391,0-0.5859375,0.0039062-0.8916016,0.0136719
		c-3.6884766-8.0791016-9.3457031-14.6630859-16.1464844-19.1943359
		C529.4672852,356.8658142,511.4204102,332.3623962,488.0825195,312.0787048z M261.1821289,427.3506775
		c-0.2192383,0.671875-0.5424805,1.2851562-0.9282227,1.8476562c-3.5444336-1.8730469-7.5244141-2.9277344-11.7290039-2.9277344
		c-0.206543,0-0.4150391,0.0029297-0.6235352,0.0078125c-0.3793945-0.8427734-0.7866211-1.6640625-1.2138672-2.4697266
		c0.0605469-0.3984375,0.1416016-0.7958984,0.2680664-1.1875c5.4404297-16.8710938,15.628418-32.3623047,29.4628906-44.8007812
		c19.6865234-17.699707,45.4023438-28.2050781,72.4101562-29.5786133
		c29.2041016-1.4853516,57.7724609,7.6303711,80.3730469,25.6665039
		c12.5546875,10.0205078,22.4599609,22.2177734,29.1601562,35.7666016
		c-4.5419922,2.6142578-8.5234375,6.2441406-11.6953125,10.6152344
		c-14.8691406-34.0136719-51.8271484-57.1289062-91.8408203-57.1289062c-1.7421875,0-3.4941406,0.0439453-5.2460938,0.1318359
		C309.1674805,365.3497009,272.815918,391.6914978,261.1821289,427.3506775z"/>
	<path class="st44" d="M135.4604492,416.9024353l-0.2236328-0.078125
		c-0.4746094-0.1132812-9.7353516-2.2431641-18.3408203,2.2548828c-1.1938477,0.6240234-2.3701172,1.3935547-3.5136719,2.2958984
		c-0.71875,0.5664062-1.4267578,1.1738281-2.109375,1.8662109c-0.3422852,0.3466797-0.6679688,0.6992188-0.9775391,1.0546875
		c-4.6948242,5.3808594-5.7797852,11.5791016-5.9995117,14.9189453c-0.0830078,1.2773438,0.8745117,2.3818359,2.1396484,2.4667969
		l0.1538086,0.0048828c1.1982422,0,2.2080078-0.9394531,2.2885742-2.1660156
		c0.1420898-2.171875,0.7294922-5.8183594,2.8725586-9.4121094c0.5498047-0.9228516,1.2016602-1.8417969,1.9750977-2.7314453
		c0.253418-0.2910156,0.5195312-0.5800781,0.800293-0.8642578c0.5175781-0.5253906,1.0522461-0.9970703,1.5966797-1.4326172
		c7.6660156-6.1347656,17.6040039-3.8515625,18.0517578-3.7441406l0.0351562,0.0048828
		c1.2177734,0.2744141,2.4379883-0.4902344,2.7290039-1.7236328
		C137.2133789,418.4502869,136.5566406,417.2901306,135.4604492,416.9024353z"/>
	<path class="st44" d="M169.0615234,389.2168884c-0.4169922-0.2246094-0.9013672-0.328125-1.4008789-0.2548828
		c-0.5708008,0.0839844-1.1381836,0.1845703-1.7011719,0.3017578c-3.9150391,0.8154297-7.6157227,2.4404297-10.7890625,4.7490234
		c-7.9550781,5.7880859-10.5039062,14.2490234-11.2304688,17.6181641c-0.2700195,1.2509766,0.515625,2.4863281,1.7543945,2.7587891
		c0.1645508,0.0361328,0.3291016,0.0537109,0.4907227,0.0537109c1.0556641,0,2.0063477-0.7412109,2.2402344-1.8251953
		c0.6142578-2.8466797,2.7617188-9.9921875,9.4287109-14.8427734c1.8266602-1.3291016,3.8686523-2.3818359,6.0356445-3.1347656
		c1.0952148-0.3808594,2.2280273-0.6601562,3.3754883-0.8828125c0.3515625-0.0673828,0.6972656-0.1542969,1.0522461-0.2060547
		c1.2553711-0.1835938,2.1254883-1.359375,1.9438477-2.6269531
		C170.1523438,390.1661072,169.684082,389.5528259,169.0615234,389.2168884z"/>
	<path class="st44" d="M481.3862305,417.0655212c-0.0498047-0.0117188-0.2089844-0.0478516-0.4443359-0.0947266
		c-0.5898438-0.1171875-1.7119141-0.3095703-3.2109375-0.421875c-2.5078125-0.1884766-6.0419922-0.1445312-9.8017578,0.8720703
		c-0.8994141,0.2421875-1.8105469,0.5449219-2.7236328,0.9101562c-0.8720703,0.3496094-1.7451172,0.7568359-2.6113281,1.234375
		c-1.7880859,0.9873047-3.5410156,2.2617188-5.1728516,3.9160156c-2.4238281,2.4580078-4.0175781,5.1484375-5.0644531,7.6943359
		c-0.3964844,0.9648438-0.7070312,1.9042969-0.9599609,2.8056641c-0.2910156,1.0351562-0.5058594,2.0195312-0.6533203,2.9169922
		c-0.1582031,0.9599609-0.2519531,1.8291016-0.2988281,2.5566406c-0.0830078,1.2773438,0.8740234,2.3818359,2.1396484,2.4667969
		l0.1533203,0.0048828c1.1982422,0,2.2080078-0.9394531,2.2890625-2.1660156
		c0.0302734-0.4736328,0.0859375-1.0234375,0.1708984-1.6210938c0.1210938-0.8554688,0.3164062-1.8242188,0.6064453-2.8544922
		c0.2597656-0.9257812,0.59375-1.8994141,1.0400391-2.8964844c0.84375-1.8876953,2.0615234-3.8417969,3.8300781-5.6357422
		c1.0380859-1.0527344,2.1416016-1.9082031,3.2724609-2.6181641c0.8847656-0.5566406,1.7871094-1.015625,2.6904297-1.3945312
		c0.9121094-0.3818359,1.8261719-0.6826172,2.7255859-0.9169922c4.34375-1.1308594,8.3085938-0.7138672,10.0400391-0.4238281
		c0.5087891,0.0859375,0.8476562,0.1591797,0.9189453,0.1767578c0.7363281,0.1796875,1.4716797-0.0292969,2.0097656-0.4892578
		c0.3623047-0.3085938,0.6376953-0.7275391,0.7558594-1.2285156
		C483.3803711,418.6123962,482.6196289,417.3623962,481.3862305,417.0655212z"/>
	<path class="st44" d="M515.5639648,389.6905212c-0.4794922-0.3857422-1.1044922-0.5830078-1.7548828-0.4882812
		c-0.5302734,0.078125-1.0566406,0.1738281-1.5810547,0.2802734c-3.9589844,0.8066406-7.703125,2.4384766-10.9091797,4.7705078
		c-0.7441406,0.5419922-1.4267578,1.1123047-2.0791016,1.6943359c-0.7880859,0.703125-1.5078125,1.4316406-2.1738281,2.171875
		c-0.7392578,0.8242188-1.4101562,1.6630859-2.0078125,2.5068359c-3.1767578,4.4775391-4.484375,8.9960938-4.9697266,11.2451172
		c-0.2695312,1.2519531,0.515625,2.4873047,1.7539062,2.7587891c0.1650391,0.0371094,0.3300781,0.0546875,0.4912109,0.0546875
		c1.0556641,0,2.0058594-0.7412109,2.2402344-1.8261719c0.3203125-1.4824219,1.0644531-4.1318359,2.6367188-7.0146484
		c0.5273438-0.9677734,1.1611328-1.9589844,1.8945312-2.9423828c0.6210938-0.8330078,1.3115234-1.6611328,2.1005859-2.4619141
		c0.8330078-0.8457031,1.7539062-1.6640625,2.796875-2.4228516c2.9804688-2.1689453,6.5283203-3.6123047,10.2695312-4.1894531
		l0.1943359-0.0351562c1.125-0.1640625,1.9335938-1.1269531,1.9599609-2.2373047
		c0.0029297-0.1289062,0.0019531-0.2578125-0.0166016-0.3886719
		C516.3227539,390.5586853,516.0053711,390.0450134,515.5639648,389.6905212z"/>
	<path class="st44" d="M273.6977539,245.9571228c-13.1938477,5.1147461-25.9633789,11.2895508-37.9545898,18.3515625
		c-1.3696289,0.8061523-1.8325195,2.5810547-1.034668,3.9638672c0.5336914,0.9238281,1.4941406,1.4389648,2.4814453,1.4389648
		c0.4912109,0,0.9887695-0.1274414,1.4423828-0.3955078c11.7260742-6.9052734,24.215332-12.9438477,37.1210938-17.9477539
		c1.4794922-0.5732422,2.2192383-2.25,1.6508789-3.7441406
		C276.8374023,246.1314392,275.1821289,245.3819275,273.6977539,245.9571228z"/>
	<path class="st44" d="M224.4980469,271.3340759c-32.7387695,21.6166992-61.0864258,53.3828125-81.9790039,91.8652344
		c-0.7612305,1.4042969-0.253418,3.1650391,1.1362305,3.9345703c0.4384766,0.2431641,0.9111328,0.3583984,1.3774414,0.3583984
		c1.0131836,0,1.9960938-0.5439453,2.5185547-1.5058594c20.4404297-37.6503906,48.1342773-68.7026367,80.0874023-89.7998047
		c1.3256836-0.8759766,1.6977539-2.671875,0.831543-4.0117188
		C227.6025391,270.8340759,225.8227539,270.4590759,224.4980469,271.3340759z"/>
</g>
</svg>
